<svg width="87" height="61" viewBox="0 0 87 61" fill="none" xmlns="http://www.w3.org/2000/svg">
<path d="M10.4484 20.9885C11.6287 17.8101 14.5648 10.9105 20.7921 6.1931C23.9256 3.82428 27.6883 2.16204 33.0445 1.56729C51.6525 -0.481432 81.3782 11.3195 83.478 32.1813C83.9494 36.7982 82.8839 40.1435 82.6191 40.9039C79.0843 51.4372 67.2253 56.0884 64.1286 57.287C42.2047 65.5271 15.637 52.0959 12.1304 34.5777C11.6666 32.1849 12.224 24.7421 15.154 18.146C16.8992 14.305 19.699 10.9042 23.3178 8.56411C35.93 0.426003 53.1831 8.25318 60.2093 11.4407C69.3693 15.5963 88.0092 24.9716 86.0894 36.161C84.3916 46.111 67.2101 52.9419 57.384 55.1078C29.6617 61.1385 8.54367 41.1822 1.34464 33.5515" stroke="#FF4310" stroke-miterlimit="10" stroke-linecap="round"/>
</svg>
