<svg width="24" height="24" viewBox="0 0 24 24" fill="none" xmlns="http://www.w3.org/2000/svg">
<g id="Name=calendar">
<g id="Calendar">
<mask id="path-1-inside-1_1228_19804" fill="white">
<path fill-rule="evenodd" clip-rule="evenodd" d="M2 5.42341H3H20.1171H21.1171V6.42341V20.973V21.973H20.1171H3H2V20.973V6.42341V5.42341ZM4 7.42341V19.973H19.1171V7.42341H4ZM17.694 3V6.42342H15.694V3H17.694ZM7.42275 3V6.42342H5.42275V3H7.42275ZM20.1171 11.7027H3V9.70271H20.1171V11.7027Z"/>
</mask>
<path d="M2 5.42341V3.42341H0V5.42341H2ZM21.1171 5.42341H23.1171V3.42341H21.1171V5.42341ZM21.1171 21.973V23.973H23.1171V21.973H21.1171ZM2 21.973H0V23.973H2V21.973ZM4 19.973H2V21.973H4V19.973ZM4 7.42341V5.42341H2V7.42341H4ZM19.1171 19.973V21.973H21.1171V19.973H19.1171ZM19.1171 7.42341H21.1171V5.42341H19.1171V7.42341ZM17.694 6.42342V8.42342H19.694V6.42342H17.694ZM17.694 3H19.694V1H17.694V3ZM15.694 6.42342H13.694V8.42342H15.694V6.42342ZM15.694 3V1H13.694V3H15.694ZM7.42275 6.42342V8.42342H9.42275V6.42342H7.42275ZM7.42275 3H9.42275V1H7.42275V3ZM5.42275 6.42342H3.42275V8.42342H5.42275V6.42342ZM5.42275 3V1H3.42275V3H5.42275ZM3 11.7027H1V13.7027H3V11.7027ZM20.1171 11.7027V13.7027H22.1171V11.7027H20.1171ZM3 9.70271V7.70271H1V9.70271H3ZM20.1171 9.70271H22.1171V7.70271H20.1171V9.70271ZM3 3.42341H2V7.42341H3V3.42341ZM20.1171 3.42341H3V7.42341H20.1171V3.42341ZM21.1171 3.42341H20.1171V7.42341H21.1171V3.42341ZM23.1171 6.42341V5.42341H19.1171V6.42341H23.1171ZM23.1171 20.973V6.42341H19.1171V20.973H23.1171ZM23.1171 21.973V20.973H19.1171V21.973H23.1171ZM20.1171 23.973H21.1171V19.973H20.1171V23.973ZM3 23.973H20.1171V19.973H3V23.973ZM2 23.973H3V19.973H2V23.973ZM0 20.973V21.973H4V20.973H0ZM0 6.42341V20.973H4V6.42341H0ZM0 5.42341V6.42341H4V5.42341H0ZM6 19.973V7.42341H2V19.973H6ZM19.1171 17.973H4V21.973H19.1171V17.973ZM17.1171 7.42341V19.973H21.1171V7.42341H17.1171ZM4 9.42341H19.1171V5.42341H4V9.42341ZM19.694 6.42342V3H15.694V6.42342H19.694ZM15.694 8.42342H17.694V4.42342H15.694V8.42342ZM13.694 3V6.42342H17.694V3H13.694ZM17.694 1H15.694V5H17.694V1ZM9.42275 6.42342V3H5.42275V6.42342H9.42275ZM5.42275 8.42342H7.42275V4.42342H5.42275V8.42342ZM3.42275 3V6.42342H7.42275V3H3.42275ZM7.42275 1H5.42275V5H7.42275V1ZM3 13.7027H20.1171V9.70271H3V13.7027ZM1 9.70271V11.7027H5V9.70271H1ZM20.1171 7.70271H3V11.7027H20.1171V7.70271ZM22.1171 11.7027V9.70271H18.1171V11.7027H22.1171Z" fill="#F1F1F1" mask="url(#path-1-inside-1_1228_19804)"/>
</g>
</g>
</svg>
