<svg width="24" height="24" viewBox="0 0 24 24" fill="none" xmlns="http://www.w3.org/2000/svg">
<path d="M12 3C7.02947 3 3 7.02947 3 12C3 16.9708 7.02947 21 12 21C16.9708 21 21 16.9708 21 12C21 7.02947 16.9708 3 12 3ZM12 19.8927C7.65778 19.8927 4.125 16.3422 4.125 12C4.125 7.65775 7.65778 4.12496 12 4.12496C16.3422 4.12496 19.875 7.65776 19.875 12C19.875 16.3422 16.3422 19.8927 12 19.8927ZM15.1818 8.81822C14.9621 8.59856 14.6061 8.59856 14.3864 8.81822L12 11.2046L9.61359 8.81822C9.39394 8.59856 9.03788 8.59856 8.81794 8.81822C8.59828 9.03788 8.59828 9.39394 8.81794 9.61359L11.2043 12L8.81794 14.3864C8.59828 14.6058 8.59828 14.9624 8.81794 15.1818C9.03759 15.4015 9.39366 15.4015 9.61359 15.1818L12 12.7954L14.3864 15.1818C14.6061 15.4015 14.9621 15.4015 15.1818 15.1818C15.4014 14.9624 15.4014 14.6058 15.1818 14.3864L12.7954 12L15.1818 9.61359C15.4017 9.39366 15.4017 9.03759 15.1818 8.81822Z" fill="#808080"/>
</svg>
