<svg width="12" height="12" viewBox="0 0 12 12" fill="none" xmlns="http://www.w3.org/2000/svg">
  <path d="M5.99833 10.6426C8.56251 10.6426 10.6412 8.56397 10.6412 5.99979C10.6412 3.43561 8.56251 1.35693 5.99833 1.35693C3.43415 1.35693 1.35547 3.43561 1.35547 5.99979C1.35547 8.56397 3.43415 10.6426 5.99833 10.6426Z" stroke="#A62705" stroke-linecap="round" stroke-linejoin="round" />
  <path d="M5 8.14307H7.14286" stroke="#A62705" stroke-linecap="round" stroke-linejoin="round" />
  <path d="M6.21429 8.14307V5.64307H5.5" stroke="#A62705" stroke-linecap="round" stroke-linejoin="round" />
  <path d="M5.92857 4.35714C5.82995 4.35714 5.75 4.27719 5.75 4.17857C5.75 4.07995 5.82995 4 5.92857 4" stroke="#A62705" stroke-linecap="round" stroke-linejoin="round" />
  <path d="M5.92969 4.35714C6.02831 4.35714 6.10826 4.27719 6.10826 4.17857C6.10826 4.07995 6.02831 4 5.92969 4" stroke="#A62705" stroke-linecap="round" stroke-linejoin="round" />
</svg>