<svg width="96" height="95" viewBox="0 0 96 95" fill="none" xmlns="http://www.w3.org/2000/svg">
  <g clip-path="url(#clip0_1295_19580)">
    <path d="M3.62546 62.9959L3.64607 62.9937L3.57881 62.4556L3.55929 62.4578C3.35861 62.4805 3.21868 62.3614 3.1319 62.0951C3.07441 61.9197 3.0679 61.7757 3.11237 61.6652C3.15576 61.557 3.25122 61.4779 3.39549 61.4314C3.53976 61.3848 3.66342 61.3924 3.76214 61.4552C3.86193 61.518 3.9422 61.6392 3.99861 61.8146C4.08214 62.0723 4.042 62.2488 3.87386 62.3538L3.85759 62.3636L4.12444 62.8443L4.14288 62.8324C4.31536 62.7241 4.42383 62.5693 4.46505 62.3723C4.50627 62.1774 4.48349 61.9457 4.39888 61.6847C4.33054 61.4758 4.23725 61.3036 4.12119 61.1715C4.00403 61.0394 3.86736 60.9496 3.71658 60.9073C3.56471 60.864 3.402 60.8705 3.23169 60.9247C3.06139 60.9799 2.9258 61.0687 2.82817 61.1899C2.72946 61.3112 2.67088 61.4606 2.65353 61.6349C2.63617 61.8082 2.66329 62.0063 2.7338 62.2239C2.81841 62.4859 2.93773 62.6862 3.08851 62.8183C3.22302 62.9374 3.38031 62.9981 3.5582 62.9981C3.58098 62.9981 3.60376 62.9981 3.62654 62.9948L3.62546 62.9959Z" fill="white" />
    <path d="M3.77067 63.8999L4.0169 63.8068L4.38029 64.7672L4.75128 64.6275L4.3868 63.6671L4.60592 63.5837L5.02029 64.6773L5.39778 64.5344L4.80117 62.9612L3.23046 63.5545L3.21094 63.5621L3.81514 65.1548L4.19263 65.0129L3.77067 63.8999Z" fill="white" />
    <path d="M5.41835 66.6576C5.48235 66.7193 5.54744 66.7615 5.61035 66.781C5.68954 66.8059 5.7709 66.8005 5.85225 66.7659C6.00303 66.7009 6.08222 66.571 6.08873 66.3815C6.09523 66.1974 6.03449 65.9582 5.91083 65.6723C5.80018 65.419 5.67218 65.236 5.53117 65.131C5.38798 65.0238 5.22527 64.9859 5.04845 65.0162L5.02784 65.0194L5.1309 65.5218L5.15042 65.5175C5.2372 65.4991 5.30988 65.5142 5.37496 65.563C5.44113 65.6128 5.50188 65.7016 5.5572 65.8282C5.61686 65.9657 5.64832 66.074 5.65157 66.1509C5.65374 66.2223 5.6353 66.2657 5.59408 66.283C5.55178 66.3014 5.51273 66.2981 5.47693 66.2722C5.43788 66.2451 5.39883 66.1866 5.36086 66.0989L5.16886 65.6572L4.80981 65.8131L5.0094 66.2722C5.04629 66.3577 5.06256 66.4248 5.05713 66.4692C5.05171 66.5114 5.02784 66.5407 4.98337 66.5602C4.9389 66.5796 4.89225 66.5634 4.84127 66.5125C4.78595 66.4584 4.72629 66.3566 4.66229 66.2104C4.60479 66.0773 4.58201 65.969 4.59612 65.8889C4.61022 65.8098 4.65469 65.747 4.73388 65.6983L4.75232 65.6875L4.44642 65.2392L4.43015 65.2501C4.26961 65.3573 4.17849 65.5056 4.16005 65.6929C4.14161 65.877 4.19042 66.1032 4.30432 66.3653C4.4334 66.663 4.57334 66.8774 4.71978 67.0019C4.81632 67.0842 4.9172 67.1253 5.02025 67.1253C5.07666 67.1253 5.13415 67.1123 5.19273 67.0874C5.3652 67.0127 5.44113 66.8687 5.41944 66.6576H5.41835Z" fill="white" />
    <path d="M6.22764 69.2746C6.35238 69.2746 6.4793 69.2432 6.60513 69.1804C6.76784 69.1003 6.89042 68.9899 6.96852 68.8534C7.04662 68.717 7.08133 68.5579 7.07049 68.3792C7.06072 68.2027 7.00432 68.01 6.90235 67.8064C6.80147 67.6029 6.68106 67.4416 6.54655 67.3257C6.41096 67.2088 6.26235 67.1395 6.10615 67.1189C5.94994 67.0983 5.78832 67.1287 5.62561 67.2088C5.46506 67.2878 5.34466 67.3972 5.26764 67.5336C5.19062 67.67 5.15591 67.8292 5.16567 68.0078C5.17544 68.1854 5.23184 68.3781 5.33272 68.5828C5.4336 68.7863 5.55401 68.9476 5.68961 69.0624C5.8252 69.1772 5.97381 69.2465 6.12893 69.2681C6.16147 69.2724 6.19401 69.2746 6.22655 69.2746H6.22764ZM5.71022 68.3965C5.53991 68.0533 5.58981 67.8216 5.86316 67.6852C6.13977 67.5488 6.35672 67.6484 6.52703 67.9916C6.61164 68.1616 6.64093 68.3077 6.61381 68.4258C6.58777 68.5416 6.50425 68.6347 6.36866 68.7029C6.0953 68.8383 5.87944 68.7376 5.71022 68.3965Z" fill="white" />
    <path d="M8.25802 70.3919L7.71999 70.6951L7.24161 69.8484L7.77965 69.5452L7.52365 69.0916L6.06141 69.9155L6.04297 69.9252L6.30005 70.3789L6.87605 70.0541L7.35443 70.9008L6.77843 71.2256L7.03443 71.6793L8.5151 70.8456L8.25802 70.3919Z" fill="white" />
    <path d="M9.70473 72.6689C9.58866 72.4935 9.45958 72.3603 9.32073 72.2737C9.1808 72.1871 9.03218 72.1459 8.87924 72.1514C8.72629 72.1568 8.57225 72.2109 8.4193 72.3116C8.18825 72.4632 8.05266 72.6526 8.01686 72.8735C7.98107 73.0944 8.05158 73.3402 8.22622 73.6065C8.38568 73.848 8.55164 74.0115 8.71978 74.0905C8.79571 74.1262 8.87056 74.1446 8.94432 74.1446C9.03652 74.1446 9.12656 74.1165 9.21225 74.0602C9.35978 73.9627 9.43571 73.8306 9.43788 73.6661C9.44005 73.5047 9.3728 73.3207 9.23937 73.1171C9.16344 73.0013 9.07991 72.906 8.99097 72.8356C8.91829 72.7761 8.84344 72.7349 8.76859 72.71C8.88466 72.6505 8.98988 72.6321 9.08208 72.6559C9.18622 72.683 9.28168 72.7609 9.36629 72.8898C9.48561 73.0706 9.5149 73.2005 9.45307 73.2763L9.44222 73.2904L9.80778 73.6639L9.82188 73.6466C9.92059 73.5264 9.95964 73.3813 9.93578 73.2157C9.91191 73.0522 9.83381 72.8692 9.70364 72.6711L9.70473 72.6689ZM8.84452 73.2027C8.98771 73.4192 9.01158 73.561 8.91612 73.6238C8.825 73.6845 8.70568 73.6044 8.56358 73.3867C8.4909 73.2774 8.44859 73.1864 8.43774 73.116C8.42798 73.0511 8.44425 73.0045 8.48873 72.9753C8.51042 72.9612 8.5332 72.9547 8.55707 72.9547C8.63951 72.9547 8.73496 73.0381 8.84452 73.2027Z" fill="white" />
    <path d="M12.0721 75.5636L10.3125 76.9541L10.6189 77.3403L12.3785 75.9498L12.0721 75.5636Z" fill="white" />
    <path d="M15.1494 79.4781L14.133 79.9513L14.6287 78.9216L14.3022 78.573L13.2435 79.0071L13.787 78.0208L13.4073 77.6158L12.5938 79.2323L12.9235 79.5842L14.0159 79.1566L13.5169 80.2187L13.8542 80.5792L15.5236 79.8787L15.1494 79.4781Z" fill="white" />
    <path d="M16.8173 81.6176C16.8434 81.4628 16.8217 81.3014 16.7512 81.1379C16.6807 80.9755 16.5624 80.8142 16.3975 80.6572C16.2327 80.5002 16.0645 80.3898 15.8986 80.327C15.7315 80.2642 15.5677 80.2501 15.4137 80.2837C15.2596 80.3172 15.1186 80.4017 14.9928 80.5327C14.8691 80.6615 14.7943 80.8055 14.7682 80.9604C14.7422 81.1152 14.765 81.2765 14.8355 81.4411C14.906 81.6046 15.0242 81.767 15.1891 81.924C15.354 82.081 15.5221 82.1914 15.6881 82.2531C15.7966 82.2932 15.904 82.3138 16.007 82.3138C16.0623 82.3138 16.1177 82.3084 16.1708 82.2965C16.3238 82.2629 16.4648 82.1806 16.5874 82.0518C16.7132 81.9207 16.7891 81.7746 16.8162 81.6198L16.8173 81.6176ZM16.2023 81.6825C16.0981 81.7919 15.9853 81.8417 15.8671 81.832C15.7467 81.8222 15.6165 81.7508 15.4788 81.6198C15.2011 81.3556 15.1685 81.1206 15.379 80.8997C15.5916 80.6767 15.8302 80.6962 16.1079 80.9604C16.2457 81.0914 16.3238 81.2181 16.339 81.3382C16.3541 81.4563 16.3086 81.5721 16.2034 81.6825H16.2023Z" fill="white" />
    <path d="M18.1329 83.4647C18.2598 83.4495 18.3705 83.3878 18.4616 83.2817C18.5733 83.1518 18.62 83.011 18.6015 82.8605C18.5831 82.7111 18.4952 82.5693 18.3412 82.4361L17.4474 81.6685L16.3398 82.9547L16.7358 83.2947L17.097 82.8746L17.3009 83.05L17.3096 83.7873L17.7988 84.2074L17.7771 83.3813C17.8975 83.4506 18.0179 83.4788 18.134 83.4647H18.1329ZM18.0136 82.6862C18.0668 82.7317 18.0982 82.7772 18.1058 82.8216C18.1134 82.8638 18.0982 82.906 18.0613 82.9493C18.0245 82.9926 17.9843 83.0143 17.9409 83.0132C17.8965 83.0132 17.8466 82.9883 17.7934 82.9428L17.3595 82.5704L17.5808 82.3138L18.0147 82.6862H18.0136Z" fill="white" />
    <path d="M19.5538 83.4279L19.1438 83.1063L18.0938 84.4413L19.3152 85.3984L19.5744 85.0682L18.7641 84.4327L19.5538 83.4279Z" fill="white" />
    <path d="M21.468 84.8603L20.6121 84.2507L19.6369 85.615L19.625 85.6312L20.4809 86.2408C20.7087 86.4021 20.9267 86.4844 21.1306 86.4844C21.1534 86.4844 21.1762 86.4844 21.1979 86.4811C21.4224 86.4606 21.6155 86.3404 21.7706 86.1238C21.9268 85.9051 21.9789 85.6832 21.9268 85.4623C21.8748 85.2425 21.7196 85.04 21.4669 84.8603H21.468ZM21.238 85.2111C21.4745 85.38 21.507 85.5771 21.3378 85.8153C21.2554 85.9311 21.1632 85.9972 21.0645 86.0134C20.9657 86.0296 20.8562 85.995 20.7379 85.9105L20.2932 85.5944L20.7922 84.896L21.2369 85.2122L21.238 85.2111Z" fill="white" />
    <path d="M24.0052 86.5061C23.747 86.348 23.5214 86.2668 23.3327 86.2657H23.3283C23.1385 86.2657 22.9953 86.3405 22.9042 86.4888C22.8282 86.6122 22.812 86.7389 22.8554 86.8677C22.8988 86.9944 23.0083 87.1233 23.183 87.251L23.5702 87.5249C23.6386 87.5758 23.6895 87.6181 23.7199 87.6505C23.7481 87.6798 23.7644 87.7058 23.7666 87.7263C23.7687 87.7469 23.7633 87.7686 23.7492 87.7913C23.7286 87.8249 23.6874 87.8357 23.6255 87.8238C23.5572 87.8108 23.4487 87.7577 23.3034 87.669C23.1786 87.5921 23.0929 87.5163 23.0485 87.4427C23.0051 87.3701 22.9942 87.2987 23.017 87.2218L23.0224 87.2045L22.5343 86.9912L22.5267 87.0117C22.4627 87.1893 22.479 87.3625 22.5733 87.5249C22.6666 87.6852 22.8402 87.8433 23.0897 87.9959C23.3706 88.1692 23.6082 88.2558 23.7937 88.2558H23.798C23.9878 88.2547 24.1321 88.1778 24.2243 88.0273C24.3024 87.9007 24.3198 87.7718 24.2742 87.6451C24.2297 87.5206 24.1169 87.3896 23.9379 87.2554L23.5431 86.9771C23.4563 86.911 23.401 86.8591 23.3793 86.8212C23.3598 86.7876 23.3598 86.7573 23.3793 86.7281C23.3988 86.6967 23.4368 86.6858 23.4965 86.6956C23.5605 86.7064 23.6613 86.753 23.7937 86.8342C23.9087 86.9046 23.9868 86.9717 24.0247 87.0334C24.0616 87.0929 24.0703 87.1568 24.0497 87.2261L24.0442 87.2434L24.5324 87.4567L24.54 87.4362C24.5996 87.2683 24.5845 87.1059 24.4955 86.9522C24.4076 86.8017 24.2438 86.6512 24.0074 86.5061H24.0052Z" fill="white" />
    <path d="M26.6754 88.0662L25.0093 87.147L24.8064 87.514L25.4085 87.8464L24.7891 88.9638L25.2457 89.216L25.8651 88.0976L26.4726 88.4332L26.6754 88.0662Z" fill="white" />
    <path d="M28.3548 89.0678C28.2995 88.9282 28.1791 88.8123 27.9969 88.7224L26.9392 88.2017L26.1962 89.7045L26.1875 89.7229L26.655 89.9535L26.9002 89.4576L27.1421 89.5767L27.3341 90.2891L27.9122 90.5739L27.6855 89.7792C27.82 89.816 27.9426 89.8138 28.0522 89.7705C28.1715 89.724 28.2626 89.6373 28.3255 89.5117C28.4015 89.3591 28.4112 89.2097 28.3559 89.0689L28.3548 89.0678ZM27.5922 89.3483L27.0792 89.096L27.2289 88.7928L27.7419 89.0462C27.8049 89.0776 27.8461 89.1133 27.8645 89.1545C27.8819 89.1945 27.8786 89.2378 27.8526 89.2898C27.8016 89.3927 27.7192 89.4121 27.5922 89.3493V89.3483Z" fill="white" />
    <path d="M29.9381 90.733L30.0975 90.3703L29.1538 89.96L29.2482 89.7456L30.321 90.2133L30.4826 89.8441L28.938 89.1718L28.2578 90.7255L29.822 91.4076L29.9836 91.0384L28.8913 90.563L28.9954 90.3227L29.9381 90.733Z" fill="white" />
    <path d="M30.8692 90.0011L30.2617 91.5851L31.8368 92.1871L31.8563 92.1936L31.9995 91.8179L30.8865 91.3935L30.9798 91.1477L31.9409 91.5147L32.083 91.1455L31.1219 90.7785L31.2054 90.5609L32.2804 90.9701L32.2989 90.9777L32.4431 90.602L30.8876 90.0087L30.8692 90.0011Z" fill="white" />
    <path d="M32.5586 91.0892L33.2116 91.3047L32.8092 92.5173L33.3049 92.6808L33.7063 91.4671L34.3658 91.6847L34.497 91.2874L32.6898 90.6908L32.5586 91.0892Z" fill="white" />
    <path d="M36.5275 91.8222C36.3149 91.767 36.1186 91.754 35.945 91.7811C35.7704 91.8092 35.6218 91.8764 35.5035 91.9803C35.3853 92.0843 35.3028 92.225 35.2584 92.3982C35.2139 92.5704 35.2161 92.7328 35.2649 92.8801C35.3148 93.0273 35.4091 93.1572 35.5469 93.2666C35.6836 93.3749 35.8658 93.4582 36.0882 93.5156C36.2368 93.5535 36.3746 93.573 36.5015 93.573C36.6024 93.573 36.6957 93.5611 36.7813 93.5362C36.9766 93.481 37.1241 93.3597 37.2196 93.1778L37.2293 93.1594L36.739 92.9266L36.7304 92.945C36.6414 93.1258 36.4657 93.18 36.1945 93.1096C35.8355 93.0165 35.6988 92.8281 35.7758 92.5314C35.8138 92.3852 35.8864 92.2846 35.9927 92.2348C36.1001 92.1839 36.2444 92.1817 36.4234 92.2283C36.6859 92.2965 36.8139 92.4253 36.8128 92.6234V92.6429L37.3617 92.6765V92.6548C37.3617 92.4513 37.2901 92.277 37.1458 92.1362C37.0037 91.9965 36.7955 91.8915 36.5286 91.8222H36.5275Z" fill="white" />
    <path d="M39.0049 93.3542C38.9788 93.4788 38.9235 93.5654 38.8389 93.6119C38.7532 93.6596 38.6339 93.6682 38.4864 93.6379C38.3399 93.6076 38.2347 93.5535 38.175 93.4766C38.1165 93.4008 38.0991 93.299 38.1251 93.1745L38.3106 92.2715L37.7997 92.1665L37.6142 93.0695C37.5632 93.3174 37.6077 93.5296 37.7455 93.6996C37.8821 93.8696 38.1034 93.9866 38.4017 94.0472C38.5146 94.0699 38.6198 94.0818 38.7185 94.0818C38.8823 94.0818 39.0255 94.0493 39.147 93.9855C39.3411 93.8826 39.4659 93.705 39.5169 93.4571L39.7024 92.5541L39.1914 92.4502L39.0059 93.3532L39.0049 93.3542Z" fill="white" />
    <path d="M40.6606 92.7101L40.1453 92.6289L39.8828 94.305L41.4166 94.5453L41.4817 94.1306L40.4632 93.9715L40.6606 92.7101Z" fill="white" />
    <path d="M41.5273 93.2731L42.2096 93.3543L42.0589 94.6221L42.5763 94.6838L42.7282 93.416L43.417 93.4972L43.4669 93.0814L41.5772 92.8573L41.5273 93.2731Z" fill="white" />
    <path d="M45.0911 94.1274C45.0824 94.254 45.038 94.3472 44.9599 94.4056C44.8807 94.4641 44.7646 94.4879 44.6138 94.4771C44.4641 94.4663 44.3535 94.4262 44.2841 94.358C44.2157 94.2898 44.1864 94.1912 44.1951 94.0646L44.2602 93.1453L43.7395 93.1085L43.6744 94.0277C43.6571 94.28 43.7276 94.4847 43.8871 94.6362C44.0443 94.7867 44.2797 94.8734 44.5835 94.895C44.6279 94.8983 44.6713 94.8993 44.7125 94.8993C44.9588 94.8993 45.1605 94.8452 45.3135 94.7369C45.4925 94.6092 45.5934 94.4175 45.6107 94.1653L45.6758 93.246L45.1551 93.2092L45.09 94.1284L45.0911 94.1274Z" fill="white" />
    <path d="M47.7916 94.2139C47.8795 94.1219 47.9261 94.0039 47.9294 93.8631C47.9326 93.692 47.8795 93.5535 47.7688 93.4495C47.6593 93.3467 47.5009 93.2914 47.298 93.2871L46.1189 93.2622L46.082 94.9577L46.6038 94.9686L46.6157 94.4153L46.8847 94.4207L47.3609 94.9848L48.0053 94.9989L47.4629 94.3752C47.6007 94.3514 47.7102 94.2973 47.7916 94.2128V94.2139ZM46.632 93.6758L47.2037 93.6877C47.2742 93.6888 47.3273 93.705 47.3599 93.7332C47.3924 93.7613 47.4076 93.8036 47.4065 93.861C47.4054 93.9183 47.3881 93.9595 47.3544 93.9865C47.3197 94.0136 47.2655 94.0266 47.1961 94.0255L46.6244 94.0136L46.632 93.6758Z" fill="white" />
    <path d="M48.9345 94.5777L48.9269 94.3157L49.9553 94.2897L49.9455 93.8945L48.9172 93.9205L48.9117 93.6866L50.0822 93.6574L50.0713 93.2546L48.4073 93.2969L48.3867 93.298L48.429 94.9729L48.4301 94.9935L50.1158 94.9502H50.1364L50.1256 94.5474L48.9345 94.5777Z" fill="white" />
    <path d="M52.2306 93.9151C52.1221 93.8404 51.954 93.7993 51.7294 93.7949L51.2456 93.7993C51.1361 93.796 51.0612 93.7863 51.0222 93.7679C50.9875 93.7516 50.969 93.7267 50.9669 93.6921C50.9647 93.6553 50.9885 93.6239 51.0428 93.5979C51.1014 93.5687 51.2098 93.5481 51.366 93.5373C51.5016 93.5275 51.6036 93.5373 51.6698 93.5643C51.7349 93.5914 51.7782 93.638 51.8021 93.7072L51.8075 93.7246L52.3282 93.6131L52.3217 93.5925C52.2718 93.4214 52.1644 93.298 52.0017 93.2265C51.8422 93.1551 51.621 93.1291 51.3454 93.1497C51.0439 93.1713 50.8128 93.2374 50.6588 93.3467C50.5015 93.4582 50.4288 93.6033 50.4418 93.7776C50.4527 93.9216 50.5134 94.0342 50.6241 94.1133C50.7336 94.1912 50.8974 94.2313 51.1133 94.2335L51.5873 94.2302C51.673 94.2324 51.7392 94.2367 51.7826 94.2454C51.8227 94.2529 51.8509 94.2649 51.865 94.28C51.8791 94.2952 51.8867 94.3157 51.8889 94.3428C51.8921 94.3829 51.865 94.4153 51.8075 94.4413C51.7435 94.4706 51.6253 94.4911 51.4561 94.5031C51.3096 94.5139 51.1957 94.502 51.1176 94.4684C51.0395 94.4348 50.9896 94.3829 50.9636 94.3071L50.9582 94.2898L50.4375 94.4013L50.444 94.4218C50.4961 94.6037 50.61 94.7347 50.7814 94.8105C50.9137 94.869 51.0862 94.8993 51.2944 94.8993C51.3519 94.8993 51.4127 94.8972 51.4767 94.8928C51.8086 94.869 52.0527 94.8008 52.2035 94.6914C52.3575 94.5799 52.428 94.4338 52.4161 94.2573C52.4052 94.1079 52.3434 93.9942 52.2328 93.9173L52.2306 93.9151Z" fill="white" />
    <path d="M55.5169 93.8328C55.5472 93.7516 55.5646 93.6661 55.5679 93.5794V93.5578L55.071 93.5632L55.0689 93.5805C55.0569 93.6704 55.0331 93.7527 54.9962 93.8252L54.6903 93.6617C54.8107 93.5946 54.8942 93.5253 54.942 93.456C54.994 93.3791 55.0135 93.2925 55.0005 93.1983C54.9821 93.0641 54.9051 92.9623 54.7727 92.8962C54.6436 92.8313 54.4723 92.8129 54.264 92.8421C54.0481 92.8724 53.8832 92.9385 53.7748 93.0381C53.6641 93.1398 53.6175 93.2611 53.637 93.3965C53.6457 93.4603 53.6674 93.5177 53.701 93.5664C53.7303 93.6097 53.7824 93.6563 53.855 93.705C53.7314 93.7722 53.6446 93.8447 53.5958 93.9194C53.5426 94.0017 53.522 94.0926 53.535 94.1901C53.5481 94.2865 53.5893 94.3698 53.6554 94.4391C53.7216 94.5084 53.8203 94.5571 53.9472 94.5842C54.0091 94.5972 54.0807 94.6037 54.1599 94.6037C54.239 94.6037 54.3323 94.5972 54.431 94.5831C54.5536 94.5658 54.6718 94.5366 54.7825 94.4965C54.8888 94.4575 54.9864 94.4088 55.0743 94.3525L55.2479 94.4424L55.9638 94.3417L55.4041 94.0439C55.4507 93.9768 55.4887 93.9053 55.5158 93.8317L55.5169 93.8328ZM54.648 94.1316C54.5775 94.1609 54.4972 94.1814 54.4093 94.1933C54.2976 94.2085 54.2119 94.2074 54.1533 94.189C54.0991 94.1717 54.0698 94.1403 54.0633 94.0926C54.059 94.0591 54.0666 94.0288 54.0883 94.0006C54.11 93.9725 54.1555 93.9421 54.2239 93.9107L54.648 94.1316ZM54.4842 93.3618C54.4582 93.391 54.3985 93.4279 54.3074 93.4712C54.2455 93.443 54.2011 93.4192 54.1761 93.4008C54.1523 93.3835 54.1392 93.364 54.1371 93.3412C54.1327 93.3088 54.1436 93.2817 54.1696 93.2579C54.1978 93.2319 54.2466 93.2146 54.3128 93.2059C54.3367 93.2026 54.3594 93.2005 54.379 93.2005C54.4137 93.2005 54.4419 93.2059 54.4636 93.2156C54.495 93.2308 54.5124 93.2525 54.5167 93.2828C54.52 93.3077 54.5102 93.3347 54.4853 93.3629L54.4842 93.3618Z" fill="white" />
    <path d="M58.4825 92.9245C58.3643 92.8649 58.1929 92.8476 57.9694 92.8736L57.4911 92.9429C57.3826 92.9548 57.3066 92.9548 57.2654 92.9429C57.2285 92.9321 57.2079 92.9104 57.2003 92.8758C57.1927 92.84 57.2134 92.8054 57.2622 92.7718C57.3164 92.735 57.4205 92.7004 57.5735 92.6679C57.7058 92.6397 57.8089 92.6354 57.8783 92.6538C57.9466 92.6711 57.9955 92.7123 58.0291 92.7772L58.0378 92.7935L58.5389 92.6127L58.5302 92.5932C58.4576 92.4308 58.3339 92.3225 58.1636 92.2727C57.9955 92.224 57.7731 92.2283 57.5019 92.2846C57.2058 92.3474 56.9856 92.4437 56.8478 92.5726C56.7079 92.7036 56.6547 92.8573 56.6905 93.0295C56.7198 93.1713 56.7968 93.2742 56.9172 93.337C57.0355 93.3987 57.2047 93.4171 57.4184 93.39L57.8881 93.3229C57.9738 93.3132 58.0389 93.3088 58.0833 93.311C58.1245 93.3132 58.1538 93.3208 58.169 93.3337C58.1853 93.3467 58.1961 93.3662 58.2016 93.3922C58.2102 93.4312 58.1875 93.4669 58.1343 93.5005C58.0757 93.5373 57.9607 93.5741 57.7937 93.6098C57.6505 93.6402 57.5355 93.6434 57.4531 93.6207C57.3717 93.5979 57.3142 93.5525 57.2784 93.4821L57.2698 93.4658L56.7686 93.6466L56.7773 93.6661C56.8543 93.8394 56.9845 93.9531 57.1645 94.0061C57.247 94.0299 57.3403 94.0418 57.4466 94.0418C57.5702 94.0418 57.7102 94.0256 57.8642 93.9931C58.1896 93.9249 58.4229 93.8242 58.5574 93.6954C58.694 93.5633 58.745 93.4095 58.7092 93.2363C58.6788 93.0901 58.6018 92.9851 58.4814 92.9245H58.4825Z" fill="white" />
    <path d="M60.5956 91.859C60.5175 91.7832 60.421 91.7334 60.3082 91.7096C60.1953 91.6869 60.0706 91.6923 59.9372 91.7269L58.8242 92.0182L59.2549 93.6596L59.7593 93.5275L59.6443 93.0879L60.2344 92.9342C60.3732 92.8985 60.4882 92.8421 60.5772 92.7664C60.6672 92.6906 60.729 92.5996 60.7616 92.4968C60.7941 92.3928 60.7952 92.2791 60.7627 92.159C60.7301 92.0355 60.6748 91.9348 60.5967 91.859H60.5956ZM59.5391 92.6906L59.4328 92.2856L59.9502 92.1503C60.0326 92.1286 60.0999 92.1297 60.1487 92.1546C60.1975 92.1784 60.2301 92.225 60.2485 92.2965C60.2832 92.4286 60.2203 92.513 60.0554 92.5563L59.538 92.6916L59.5391 92.6906Z" fill="white" />
    <path d="M62.9278 91.2267C62.8042 91.1292 62.6523 91.0708 62.4744 91.0534C62.2976 91.0361 62.0991 91.0632 61.8821 91.1314C61.6652 91.1996 61.4862 91.2938 61.3517 91.4097C61.2161 91.5255 61.1239 91.6619 61.0805 91.8124C61.036 91.9629 61.0415 92.1275 61.0968 92.3007C61.151 92.4707 61.2411 92.6061 61.3636 92.7035C61.4873 92.8009 61.6392 92.8583 61.8181 92.8757C61.8539 92.8789 61.8908 92.8811 61.9277 92.8811C62.0763 92.8811 62.239 92.8529 62.4126 92.7988C62.6295 92.7295 62.8074 92.6364 62.9419 92.5205C63.0764 92.4036 63.1676 92.2682 63.212 92.1188C63.2565 91.9683 63.2522 91.8059 63.1979 91.6359C63.1426 91.4627 63.0526 91.3252 62.9289 91.2278L62.9278 91.2267ZM62.6577 92.1611C62.5916 92.2618 62.4657 92.3419 62.2846 92.3982C62.1023 92.4556 61.9526 92.4631 61.8398 92.4198C61.7292 92.3765 61.6489 92.2823 61.6034 92.1394C61.5101 91.846 61.6424 91.6468 62.008 91.5309C62.111 91.4984 62.2032 91.4822 62.2846 91.4822C62.4885 91.4822 62.6209 91.5861 62.6881 91.7962C62.7337 91.9402 62.7239 92.0625 62.6577 92.1611Z" fill="white" />
    <path d="M65.1804 90.9657C65.2281 90.8477 65.2271 90.721 65.1782 90.59C65.1186 90.4298 65.0166 90.3204 64.8756 90.2652C64.7357 90.21 64.5686 90.2176 64.3777 90.289L63.2734 90.7015L63.87 92.2899L64.3582 92.1069L64.164 91.5883L64.4157 91.4941L65.0589 91.8373L65.0665 91.8416L65.6707 91.6154L64.9353 91.2364C65.0535 91.1639 65.1359 91.0729 65.1793 90.9646L65.1804 90.9657ZM64.6923 90.7817C64.7324 90.8899 64.6901 90.9625 64.5578 91.0123L64.0219 91.2126L63.9026 90.8964L64.4385 90.6961C64.5708 90.6463 64.6511 90.6734 64.6923 90.7817Z" fill="white" />
    <path d="M66.9674 89.2194L65.2188 89.9686L65.3847 90.354L66.016 90.0834L66.5204 91.257L66.9999 91.0513L66.4955 89.8776L67.1333 89.6037L66.9674 89.2194Z" fill="white" />
    <path d="M69.1406 89.0635C69.0115 89.0342 68.8401 89.0591 68.6308 89.1382L68.1828 89.3211C68.0797 89.359 68.0071 89.3774 67.9637 89.3753C67.9257 89.3731 67.8997 89.3569 67.8845 89.3255C67.8682 89.2919 67.8801 89.254 67.9192 89.2096C67.9626 89.1609 68.0559 89.1013 68.1958 89.0331C68.3162 88.9747 68.4128 88.9454 68.4854 88.9454H68.4876C68.5581 88.9454 68.6156 88.9736 68.6644 89.0288L68.6763 89.0418L69.1178 88.7451L69.1048 88.7278C68.9953 88.5881 68.8488 88.5134 68.672 88.5058C68.4974 88.5004 68.2826 88.5567 68.0331 88.678C67.7608 88.8101 67.571 88.9573 67.469 89.1154C67.3649 89.2767 67.3508 89.4392 67.4278 89.5962C67.4907 89.7261 67.5905 89.8084 67.7218 89.8398C67.8519 89.8712 68.0201 89.8473 68.2208 89.7694L68.6601 89.5897C68.7404 89.5593 68.8033 89.5398 68.8467 89.5312C68.8868 89.5236 68.9172 89.5236 68.9356 89.5323C68.954 89.5409 68.9692 89.5572 68.9812 89.5821C68.9985 89.6178 68.9855 89.6579 68.9421 89.7033C68.8944 89.7542 68.7924 89.817 68.6384 89.8917C68.5071 89.9556 68.3954 89.9892 68.3108 89.9848C68.2262 89.9827 68.16 89.9524 68.1069 89.8928L68.0949 89.8798L67.6534 90.1765L67.6665 90.1938C67.7825 90.3432 67.9366 90.4223 68.1253 90.4298C68.1351 90.4298 68.1448 90.4298 68.1546 90.4298C68.3347 90.4298 68.5516 90.3681 68.8011 90.2469C69.1005 90.1018 69.3023 89.948 69.401 89.79C69.5018 89.6297 69.5138 89.4673 69.4357 89.3081C69.3706 89.1739 69.2708 89.0905 69.1395 89.0613L69.1406 89.0635Z" fill="white" />
    <path d="M70.9899 87.1362L70.543 87.3918L70.6015 89.3136L71.0821 89.0386L71.0647 88.6943L71.8349 88.2536L72.1234 88.4431L72.6202 88.1594L70.9996 87.1427L70.9899 87.1362ZM71.4607 88.0089L71.043 88.2482L71.0181 87.7187L71.4607 88.01V88.0089Z" fill="white" />
    <path d="M74.2564 85.0856L73.7965 85.3844L74.0861 86.466L73.1564 85.7991L72.7551 86.0589L73.0002 87.1752L72.1216 86.4704L71.6562 86.7725L73.0979 87.8443L73.1087 87.853L73.5144 87.5899L73.2812 86.4422L74.2423 87.1178L74.6567 86.8482L74.2629 85.1137L74.2564 85.0856Z" fill="white" />
    <path d="M75.2787 84.3212L74.8633 84.6243L75.1366 86.5267L75.5836 86.2008L75.5282 85.8608L76.2442 85.3378L76.5522 85.4938L77.0143 85.1559L75.2907 84.3266L75.2798 84.3212H75.2787ZM75.4555 85.4201L75.3709 84.8972L75.8439 85.1365L75.4555 85.4201Z" fill="white" />
    <path d="M78.0921 83.2774C78.0997 83.1497 78.0585 83.0306 77.9695 82.9212C77.8621 82.7891 77.7309 82.7177 77.579 82.709C77.4282 82.7014 77.272 82.7621 77.1147 82.8898L76.1992 83.6315L77.2568 84.9329L77.2699 84.9492L77.6745 84.6211L77.3252 84.1912L77.5345 84.0223L78.2537 84.1436H78.2624L78.7636 83.7397L77.9457 83.6142C78.0357 83.5081 78.0845 83.3954 78.091 83.2785L78.0921 83.2774ZM77.5703 83.2569C77.6061 83.3013 77.6202 83.3435 77.6116 83.3857C77.6029 83.429 77.5703 83.4734 77.5161 83.5178L77.0714 83.8773L76.8577 83.6152L77.3024 83.2558C77.412 83.167 77.4977 83.167 77.5703 83.2558V83.2569Z" fill="white" />
    <path d="M79.3919 81.2137C79.3919 81.2137 79.3854 81.2137 79.3811 81.2137C79.1544 81.217 78.9233 81.3231 78.6923 81.5299L77.9102 82.2304L79.0459 83.4929L79.828 82.7923C80.059 82.5855 80.1903 82.3679 80.2196 82.146C80.2489 81.9229 80.1729 81.7085 79.995 81.5104C79.8182 81.3144 79.6154 81.2148 79.3919 81.2148V81.2137ZM79.5601 82.4697L79.1533 82.8335L78.5784 82.1947L78.9851 81.8309C79.0925 81.7345 79.1977 81.688 79.2986 81.6945C79.3995 81.6999 79.4993 81.7573 79.5969 81.8655C79.7878 82.0778 79.7759 82.2759 79.559 82.4697H79.5601Z" fill="white" />
    <path d="M81.4554 80.0044C81.3242 80.0184 81.1702 80.0975 80.9966 80.2393L80.6321 80.5566C80.5475 80.6259 80.4835 80.667 80.4423 80.6778C80.4054 80.6887 80.375 80.6811 80.3512 80.6562C80.3251 80.6302 80.3241 80.5901 80.3468 80.5349C80.3718 80.4754 80.4412 80.3887 80.5519 80.2794C80.6484 80.1841 80.7319 80.1246 80.8003 80.1018C80.8675 80.0802 80.9304 80.0867 80.9944 80.1235L81.0096 80.1321L81.3318 79.7088L81.3133 79.6969C81.1636 79.5994 81.002 79.5756 80.8317 79.6265C80.6647 79.6763 80.4792 79.7997 80.2828 79.9946C80.0681 80.2068 79.9357 80.4082 79.8902 80.5901C79.8435 80.7764 79.8826 80.9344 80.0062 81.0589C80.1082 81.1618 80.2286 81.2073 80.3642 81.1954C80.4976 81.1835 80.6484 81.1066 80.8144 80.968L81.1723 80.6573C81.2385 80.6031 81.2917 80.5641 81.3296 80.5425C81.3654 80.5219 81.3936 80.5133 81.4142 80.5154C81.4348 80.5176 81.4544 80.5284 81.4728 80.5479C81.501 80.576 81.5021 80.6183 81.475 80.6757C81.4457 80.7385 81.3698 80.8316 81.2483 80.9518C81.1441 81.0546 81.0498 81.1196 80.9684 81.1456C80.8881 81.1715 80.8154 81.164 80.746 81.1239L80.7308 81.1152L80.4087 81.5386L80.4271 81.5505C80.5312 81.6187 80.6419 81.6534 80.7569 81.6534C80.8165 81.6534 80.8762 81.6447 80.938 81.6263C81.1159 81.5732 81.3112 81.4422 81.5184 81.2365C81.7548 81.0026 81.8959 80.7926 81.9382 80.6107C81.9815 80.4256 81.9403 80.2686 81.8156 80.143C81.7104 80.0369 81.59 79.9903 81.4554 80.0044Z" fill="white" />
    <path d="M83.0331 76.6556L82.7148 77.0321L84.4303 78.4765L84.7486 78.1L83.0331 76.6556Z" fill="white" />
    <path d="M86.6271 74.3092C86.5067 74.2215 86.3787 74.1945 86.2497 74.2302C86.1217 74.2648 85.9828 74.3677 85.8342 74.5344L85.525 74.9058C85.4524 74.987 85.396 75.0379 85.3569 75.0563C85.3222 75.0725 85.2918 75.0704 85.2636 75.0498C85.2333 75.0281 85.2257 74.9892 85.2398 74.9307C85.2549 74.8668 85.3092 74.7715 85.4014 74.6449C85.4806 74.5355 85.5543 74.4641 85.6183 74.4305C85.6813 74.398 85.7442 74.3948 85.8136 74.4207L85.8299 74.4272L86.0804 73.9573L86.0609 73.9487C85.8982 73.8761 85.7344 73.8794 85.5739 73.9563C85.4166 74.032 85.2539 74.1836 85.0911 74.4077C84.9132 74.6524 84.8145 74.8712 84.7994 75.0585C84.7831 75.2501 84.8471 75.3995 84.9892 75.5024C85.1063 75.5868 85.2322 75.6128 85.3645 75.5792C85.4936 75.5457 85.6314 75.4461 85.7724 75.2837L86.0761 74.9199C86.1325 74.8549 86.1791 74.8084 86.2128 74.7813C86.2442 74.7553 86.2713 74.7423 86.292 74.7412C86.3126 74.7401 86.3332 74.7477 86.3549 74.764C86.3874 74.7878 86.395 74.8289 86.3777 74.8896C86.3592 74.9567 86.2985 75.0606 86.1976 75.1981C86.1119 75.3162 86.0295 75.3952 85.9524 75.4342C85.8765 75.4721 85.8038 75.4764 85.729 75.4482L85.7127 75.4417L85.4621 75.9106L85.4817 75.9192C85.5663 75.9571 85.6498 75.9755 85.7333 75.9755C85.8223 75.9755 85.9101 75.955 85.9969 75.9127C86.164 75.8326 86.3353 75.6713 86.5078 75.4352C86.7031 75.1667 86.8094 74.9361 86.8224 74.751C86.8354 74.5615 86.7703 74.4132 86.6271 74.3092Z" fill="white" />
    <path d="M87.2602 73.6077L87.0411 73.4637L87.6073 72.6061L87.2765 72.3885L86.7103 73.246L86.515 73.1183L87.1583 72.1416L86.822 71.9208L85.8945 73.3251L87.3145 74.2584L88.2528 72.8357L87.9165 72.6148L87.2602 73.6077Z" fill="white" />
    <path d="M87.6638 70.5176L87.4089 70.9496L87.4023 70.9604L88.4057 72.6007L88.6867 72.1254L88.5012 71.8352L88.9524 71.0719L89.2974 71.0936L89.5881 70.602L87.6768 70.5187H87.6649L87.6638 70.5176ZM87.9762 71.0091L88.5055 71.0427L88.2615 71.4563L87.9773 71.0081L87.9762 71.0091Z" fill="white" />
    <path d="M90.1033 68.4636C89.971 68.3943 89.8408 68.3857 89.7182 68.4398C89.5967 68.4929 89.4742 68.6141 89.3516 68.8014L89.0999 69.214C89.0403 69.3049 88.9914 69.3634 88.9556 69.3872C88.9242 69.4078 88.8938 69.411 88.8624 69.3948C88.8298 69.3774 88.8157 69.3396 88.8222 69.2811C88.8287 69.2161 88.8678 69.1133 88.9405 68.9758C89.0034 68.8567 89.0652 68.7744 89.1238 68.7321C89.1813 68.691 89.2442 68.6791 89.3147 68.6943L89.3321 68.6986L89.5121 68.1984L89.4915 68.193C89.3201 68.1453 89.1585 68.1713 89.011 68.2698C88.8656 68.3673 88.7279 68.5416 88.5988 68.7863C88.4577 69.0537 88.3927 69.2843 88.4035 69.4727C88.4154 69.6644 88.5001 69.803 88.6563 69.8852C88.7843 69.9524 88.9133 69.96 89.0381 69.908C89.1617 69.8571 89.2832 69.738 89.3982 69.5561L89.6455 69.1522C89.6922 69.0808 89.7312 69.0277 89.7616 68.9952C89.7898 68.9649 89.8137 68.9476 89.8343 68.9433C89.8549 68.94 89.8766 68.9433 89.9005 68.9563C89.9363 68.9747 89.9493 69.0147 89.9406 69.0775C89.9319 69.1468 89.8874 69.2584 89.8072 69.4088C89.7388 69.5377 89.6683 69.6286 89.5989 69.6774C89.5295 69.7261 89.4579 69.7412 89.3798 69.7228L89.3624 69.7185L89.1824 70.2187L89.203 70.2241C89.2626 70.2415 89.3212 70.249 89.3787 70.249C89.4959 70.249 89.6076 70.2133 89.7128 70.1429C89.8657 70.039 90.0133 69.856 90.1489 69.5972C90.304 69.3038 90.3756 69.0602 90.3615 68.8751C90.3474 68.6856 90.2606 68.5481 90.1044 68.4658L90.1033 68.4636Z" fill="white" />
    <path d="M90.8883 66.073C90.7234 65.9972 90.5607 65.9712 90.4056 65.9961C90.2505 66.021 90.1041 66.0946 89.9717 66.2137C89.8405 66.3328 89.7255 66.4974 89.63 66.7031C89.5346 66.9099 89.4836 67.1037 89.4771 67.2813C89.4716 67.4599 89.5096 67.6191 89.591 67.7534C89.6723 67.8876 89.7982 67.9948 89.963 68.0706C90.0845 68.1269 90.2049 68.155 90.3232 68.155C90.3622 68.155 90.4024 68.1518 90.4403 68.1453C90.5954 68.1204 90.7408 68.0468 90.8742 67.9266C91.0066 67.8075 91.1226 67.6429 91.2181 67.4372C91.3136 67.2315 91.3645 67.0366 91.3689 66.859C91.3732 66.6804 91.3352 66.5223 91.2539 66.388C91.1725 66.2538 91.05 66.1477 90.8872 66.073H90.8883ZM90.8373 67.2607C90.7571 67.4339 90.6616 67.5487 90.5531 67.6029C90.4468 67.6559 90.3232 67.6505 90.1865 67.5877C89.9066 67.4588 89.8491 67.2261 90.0097 66.8796C90.1258 66.6284 90.2711 66.5039 90.4479 66.5039C90.5152 66.5039 90.5868 66.5212 90.6638 66.5569C90.8005 66.6197 90.8851 66.7107 90.9133 66.8255C90.9426 66.9424 90.9165 67.0886 90.8373 67.2607Z" fill="white" />
    <path d="M90.8021 64.0104L91.8153 64.4143L90.4442 64.9231L90.4366 64.9264L90.25 65.3909L91.8283 66.0199L92.0084 65.5706L90.9974 65.1678L92.3739 64.6557L92.5594 64.1934L90.9811 63.5643L90.8021 64.0104Z" fill="white" />
    <path d="M93.388 61.3739C93.3435 61.1899 93.2318 61.0675 93.0549 61.0101C92.8868 60.956 92.7349 60.9798 92.6059 61.0816C92.4789 61.1812 92.377 61.349 92.3021 61.5796C92.2598 61.7117 92.2381 61.8362 92.237 61.9488C92.237 62.043 92.2512 62.1275 92.2783 62.2C92.1589 62.147 92.0787 62.0766 92.0385 61.99C91.9941 61.8925 91.9962 61.7691 92.0429 61.6229C92.1091 61.4172 92.1926 61.3122 92.2902 61.3122H92.3086L92.3705 60.7936H92.3401C92.1872 60.7936 92.0526 60.8542 91.9398 60.9755C91.827 61.0967 91.7326 61.2721 91.66 61.4973C91.596 61.6977 91.5732 61.8817 91.5927 62.0441C91.6122 62.2076 91.6741 62.3494 91.7739 62.4642C91.8737 62.579 92.0136 62.6656 92.1871 62.7219C92.301 62.7587 92.4095 62.7771 92.5104 62.7771C92.6438 62.7771 92.7664 62.7457 92.8771 62.6829C93.0723 62.5725 93.2198 62.3635 93.3175 62.0604C93.4064 61.7843 93.4292 61.5537 93.3858 61.3728L93.388 61.3739ZM92.9367 61.9358C92.8586 62.1784 92.7653 62.2845 92.6623 62.2509C92.5538 62.2163 92.5386 62.0755 92.6167 61.833C92.6872 61.6165 92.7686 61.5071 92.8608 61.5071C92.8738 61.5071 92.8868 61.5093 92.8998 61.5136C93.004 61.5472 93.0159 61.689 92.9367 61.9369V61.9358Z" fill="white" />
    <path d="M4.25533 33.6087L3.3192 33.2947L4.16313 33.0565L4.30198 32.6429L3.75526 31.9413L4.70876 32.2607L4.86387 31.7984L3.25194 31.2592L3.08164 31.7659L3.78781 32.6948L2.66184 33.0175L2.48828 33.5329L4.09913 34.0731L4.25533 33.6087Z" fill="white" />
    <path d="M5.60872 29.9112L5.23339 29.764L4.79733 30.8716L4.55326 30.7752L4.92967 29.8203L4.56085 29.6752L4.18445 30.6301L3.96641 30.5446L4.39489 29.4576L4.01956 29.3103L3.40234 30.8759L4.9839 31.4963L5.60872 29.9112Z" fill="white" />
    <path d="M5.61413 29.855L5.89074 29.254L5.51867 28.3879L6.15433 28.678L6.36802 28.2135L5.72152 27.918L6.6327 27.6386L6.90823 27.0377L5.72043 27.4221L5.35596 26.348L5.08802 26.9294L5.08477 26.937L5.4026 27.7718L4.82335 27.5065L4.60965 27.9721L5.19433 28.2395L4.34931 28.5394L4.07812 29.1306L5.14118 28.7105L5.61413 29.855Z" fill="white" />
    <path d="M6.20034 26.2506C6.30122 26.3145 6.38366 26.3719 6.44333 26.4206C6.5019 26.4693 6.54638 26.5159 6.57458 26.5603C6.60061 26.6014 6.62014 26.6458 6.6299 26.6913L6.54963 26.8428L7.2699 27.225L7.50421 26.7865L7.15492 26.6003L7.76455 25.458L8.11383 25.6443L8.34922 25.2036L7.62895 24.8214L7.52482 25.0152L6.3956 24.4143L5.60156 25.903L5.81743 26.0232C5.97038 26.1098 6.09946 26.1867 6.20143 26.2506H6.20034ZM6.87939 26.2235C6.8501 26.1661 6.80997 26.1098 6.76116 26.0557C6.70149 25.9907 6.62556 25.9279 6.53444 25.8684C6.44875 25.811 6.33702 25.7439 6.20251 25.667L6.5236 25.065L7.28292 25.4689L6.88048 26.2235H6.87939Z" fill="white" />
    <path d="M8.22605 24.6416L8.52544 24.1371L7.59256 22.3831L7.29859 22.8779L7.7108 23.6509L6.81805 23.6867L6.50781 24.2064L7.95595 24.1295L8.22605 24.6416Z" fill="white" />
    <path d="M8.52753 20.9647L9.04387 21.3047L8.50692 22.1167L7.99058 21.7756L7.70312 22.2109L9.12197 23.1453L9.40943 22.7111L8.85729 22.3473L9.39424 21.5364L9.94529 21.8991L10.2328 21.4649L8.81499 20.5305L8.52753 20.9647Z" fill="white" />
    <path d="M10.4715 20.6085L10.9965 19.894L11.3371 19.9503L11.6756 19.4901L9.76966 19.2151L9.46484 19.6298L10.299 21.3621L10.6266 20.9171L10.4704 20.6096L10.4715 20.6085ZM10.555 19.8225L10.2697 20.2101L10.0311 19.7359L10.5539 19.8225H10.555Z" fill="white" />
    <path d="M12.0863 18.9909L11.7327 18.705L12.1167 18.2319C12.2067 18.1204 12.2664 18.0078 12.2935 17.8941C12.3206 17.7804 12.3163 17.671 12.2816 17.5682C12.2458 17.4653 12.1796 17.3733 12.082 17.2953C11.9822 17.2152 11.877 17.1665 11.7696 17.1524C11.6622 17.1373 11.5537 17.1546 11.4496 17.2022C11.3454 17.2499 11.2489 17.3289 11.161 17.4361L10.4375 18.3293L11.7587 19.3958L12.0863 18.9909ZM11.0851 18.1832L11.4214 17.7685C11.4745 17.7024 11.5298 17.6635 11.5841 17.6537C11.6383 17.644 11.6915 17.6624 11.749 17.7079C11.8553 17.7934 11.8542 17.8995 11.7479 18.0305L11.4116 18.4452L11.0851 18.1821V18.1832Z" fill="white" />
    <path d="M12.3583 17.3105C12.4917 17.4296 12.6381 17.4999 12.7943 17.5205C12.828 17.5248 12.8605 17.527 12.8941 17.527C13.0178 17.527 13.1447 17.4967 13.2727 17.4371C13.4343 17.3614 13.5927 17.2379 13.7446 17.0679C13.8964 16.8979 14.0017 16.7269 14.057 16.5591C14.1134 16.3902 14.1221 16.2267 14.0841 16.0751C14.0461 15.9235 13.9583 15.786 13.8248 15.6669C13.6892 15.5456 13.5406 15.4742 13.3844 15.4525C13.2282 15.4309 13.0677 15.459 12.9061 15.5348C12.7455 15.6106 12.5882 15.734 12.4364 15.904C12.2845 16.074 12.1793 16.2451 12.1218 16.4129C12.0643 16.5818 12.0545 16.7453 12.0947 16.898C12.1337 17.0506 12.2227 17.1892 12.3583 17.3094V17.3105ZM12.5503 16.5807C12.5557 16.4594 12.6229 16.3263 12.7499 16.1844C12.8768 16.0426 13.0015 15.9614 13.1208 15.9419C13.1393 15.9387 13.1577 15.9376 13.1762 15.9376C13.276 15.9376 13.3736 15.9809 13.4701 16.0664C13.6979 16.2689 13.686 16.506 13.4311 16.7908C13.3042 16.9337 13.1794 17.016 13.0601 17.0355C12.9429 17.0549 12.8258 17.0149 12.713 16.9142C12.5991 16.8135 12.5438 16.7009 12.5503 16.5818V16.5807Z" fill="white" />
    <path d="M14.0164 15.2436C14.0955 15.3335 14.1574 15.4115 14.2008 15.4764C14.2431 15.5403 14.2724 15.5977 14.2865 15.6475C14.2995 15.6951 14.3049 15.7417 14.3027 15.7882L14.1823 15.9106L14.7637 16.4823L15.113 16.1282L14.831 15.851L15.74 14.9296L16.022 15.2068L16.3735 14.8506L15.7921 14.2789L15.637 14.4359L14.7247 13.5394L13.5391 14.7412L13.7115 14.9177C13.833 15.0444 13.935 15.1538 14.0153 15.2447L14.0164 15.2436ZM14.1845 14.6839L14.6639 14.1977L15.2768 14.7997L14.6759 15.4093C14.6639 15.3465 14.6412 15.2804 14.6097 15.2144C14.5707 15.1354 14.5153 15.0531 14.4459 14.9708C14.3797 14.8917 14.2919 14.7954 14.1845 14.6828V14.6839Z" fill="white" />
    <path d="M16.6265 14.0797L16.1796 13.5936L16.8977 12.9364L17.3446 13.4225L17.7286 13.0706L16.5799 11.8212L16.1948 12.1731L16.6135 12.6278L15.8954 13.285L15.4777 12.8303L15.0938 13.1821L16.2425 14.4316L16.6265 14.0797Z" fill="white" />
    <path d="M17.4297 11.1033L17.818 12.9862L18.2443 12.6332L18.1684 12.2965L18.8518 11.7313L19.1685 11.8677L19.6089 11.5028L17.8267 10.7742L17.4308 11.1022L17.4297 11.1033ZM18.0697 11.8612L17.9536 11.3437L18.4396 11.5537L18.0697 11.8601V11.8612Z" fill="white" />
    <path d="M19.351 10.7589C19.4714 10.7795 19.5994 10.7589 19.7317 10.6994L19.645 11.4779L20.1483 11.1011L20.2199 10.3876L20.4509 10.2143L20.7688 10.6366L21.1864 10.3237L20.1656 8.96704L19.2187 9.67622C19.1091 9.75851 19.0277 9.84946 18.9757 9.94798C18.9236 10.0476 18.9008 10.1505 18.9073 10.2533C18.9149 10.3573 18.9551 10.4579 19.0256 10.5521C19.1113 10.6658 19.2208 10.734 19.3521 10.7568L19.351 10.7589ZM19.9845 9.59718L20.2123 9.89926L19.7491 10.2468C19.6244 10.3399 19.5278 10.3356 19.4519 10.2349C19.4128 10.1829 19.3998 10.1353 19.4107 10.0877C19.4215 10.04 19.4595 9.99129 19.5224 9.94474L19.9856 9.59718H19.9845Z" fill="white" />
    <path d="M22.5135 7.88542L23.2164 8.9519L23.6524 8.66606L22.7185 7.24878L21.0664 8.33258L22.0004 9.74986L22.4364 9.46403L21.7335 8.39646L22.5135 7.88542Z" fill="white" />
    <path d="M24.956 7.27481C25.0211 7.17736 25.0558 7.07342 25.0591 6.96515C25.0623 6.85688 25.0309 6.74752 24.968 6.63925C24.9029 6.52881 24.8215 6.44761 24.7261 6.39672C24.6306 6.34583 24.5232 6.32309 24.4082 6.33176C24.2943 6.34042 24.175 6.38048 24.0568 6.45086L23.0664 7.03553L23.932 8.49503L24.3811 8.22976L24.149 7.8389L24.674 7.52925C24.7966 7.4567 24.892 7.37117 24.9571 7.27481H24.956ZM24.5362 7.07234C24.5178 7.12214 24.4712 7.16978 24.3974 7.21309L23.9375 7.48485L23.7238 7.12431L24.1837 6.85255C24.2575 6.80924 24.3215 6.79191 24.3757 6.80166C24.4288 6.8114 24.4733 6.84713 24.5113 6.90993C24.546 6.9684 24.5547 7.02145 24.5362 7.07125V7.07234Z" fill="white" />
    <path d="M27.1812 6.66957L26.9913 6.31552L25.9402 6.87637L25.8155 6.64467L26.7234 6.1607L26.5357 5.81206L25.6289 6.29604L25.5183 6.09032L26.5509 5.53921L26.3611 5.18408L24.875 5.97772L25.6766 7.47295L27.1812 6.66957Z" fill="white" />
    <path d="M27.8441 6.34258L27.4232 5.45041L28.1792 5.89433L28.5741 5.70918L28.7043 4.83002L29.1327 5.73734L29.5742 5.53054L28.8507 3.99524L28.3658 4.22261L28.1814 5.37462L27.1693 4.78454L26.6758 5.01624L27.3993 6.55154L27.8441 6.34258Z" fill="white" />
    <path d="M30.3328 5.2209L30.8556 3.89456L31.244 4.85277L31.7126 4.6633L31.0748 3.09119L30.617 3.27633L30.0941 4.6005L29.7058 3.64446L29.2383 3.83285L29.8761 5.40604L30.3328 5.2209Z" fill="white" />
    <path d="M33.0319 3.63799L33.2065 4.13604L33.699 3.96389L33.1382 2.36255L32.0209 2.75233C31.8918 2.7978 31.7866 2.85952 31.7063 2.93747C31.626 3.01651 31.5729 3.10746 31.549 3.20815C31.5252 3.30885 31.5317 3.41712 31.5718 3.52864C31.6185 3.6629 31.7031 3.76142 31.8213 3.82205C31.9298 3.87836 32.0578 3.89785 32.202 3.88052L31.8831 4.5962L32.4776 4.3894L32.7618 3.73111L33.034 3.63583L33.0319 3.63799ZM32.074 3.35432C32.0317 3.23306 32.0827 3.14969 32.2292 3.0988L32.7759 2.90824L32.9006 3.26554L32.3539 3.4561C32.2075 3.50698 32.1153 3.4745 32.074 3.35432Z" fill="white" />
    <path d="M36.1752 3.13013C36.3228 2.99804 36.3727 2.84429 36.3239 2.67322C36.2729 2.49349 36.1394 2.39821 35.9268 2.39172C35.9973 2.3365 36.0472 2.27803 36.0754 2.2174C36.1112 2.14269 36.1167 2.06149 36.0928 1.97595C36.0483 1.81787 35.9301 1.72259 35.7424 1.69011C35.5602 1.6598 35.315 1.68686 35.0135 1.77132C34.7466 1.84602 34.5492 1.94888 34.4255 2.07556C34.3008 2.20332 34.2401 2.35923 34.2466 2.53788V2.55845L34.7597 2.52381V2.50324C34.7521 2.41554 34.777 2.34408 34.8334 2.28669C34.8909 2.22822 34.9874 2.1795 35.1209 2.14161C35.2651 2.10046 35.3769 2.08422 35.4539 2.0918C35.5244 2.09938 35.5656 2.1232 35.5776 2.16651C35.5906 2.2109 35.5819 2.2488 35.5515 2.28128C35.519 2.31592 35.4561 2.34732 35.3639 2.37223L34.8996 2.50324L35.0059 2.87894L35.4886 2.74252C35.5786 2.71653 35.647 2.71003 35.6914 2.72194C35.7327 2.73277 35.7587 2.76092 35.7717 2.8064C35.7847 2.85295 35.763 2.89626 35.7055 2.94065C35.6437 2.98829 35.5342 3.03377 35.3812 3.07708C35.2413 3.11605 35.1306 3.12363 35.0536 3.09981C34.9766 3.07491 34.9213 3.02294 34.8833 2.93849L34.8746 2.919L34.3887 3.16261L34.3973 3.18102C34.482 3.35425 34.6176 3.46469 34.8009 3.50692C34.8638 3.52207 34.9343 3.52965 35.0091 3.52965C35.1491 3.52965 35.3085 3.50475 35.4875 3.45386C35.801 3.36508 36.0321 3.25573 36.1752 3.12796V3.13013Z" fill="white" />
    <path d="M37.0669 2.69493L37.9314 2.49463L38.1538 2.75881L38.7113 2.62997L37.4444 1.18237L36.9432 1.29822L36.4453 3.15509L36.9844 3.03058L37.0669 2.69602V2.69493ZM37.1743 2.26184L37.3023 1.74755L37.6429 2.15357L37.1743 2.26184Z" fill="white" />
    <path d="M39.977 2.40257L39.901 1.95433L40.5031 1.85255C40.6441 1.82873 40.7634 1.78326 40.8589 1.71613C40.9543 1.649 41.0248 1.56347 41.0661 1.46386C41.1073 1.36316 41.1181 1.25056 41.0975 1.12713C41.0758 1.00153 41.0292 0.895428 40.9587 0.813141C40.8882 0.730854 40.796 0.672387 40.6853 0.638823C40.5758 0.605259 40.451 0.600928 40.3143 0.623665L39.1797 0.815306L39.4628 2.48811L39.977 2.40149V2.40257ZM39.7633 1.13579L40.2905 1.04701C40.4575 1.01886 40.5508 1.07516 40.5758 1.21808C40.5877 1.28521 40.5758 1.33718 40.541 1.37724C40.5052 1.4173 40.4456 1.44545 40.361 1.45952L39.8338 1.54831L39.7644 1.13579H39.7633Z" fill="white" />
    <path d="M41.7793 1.81136L42.6601 1.702L42.8532 1.98784L43.4216 1.91746L42.313 0.346436L41.8021 0.410316L41.1133 2.20547L41.6622 2.13725L41.7793 1.81244V1.81136ZM41.9312 1.39126L42.1123 0.893209L42.4085 1.33171L41.9312 1.39126Z" fill="white" />
    <path d="M44.3556 1.87419C44.6799 1.84929 44.9283 1.78649 45.0943 1.68904C45.2646 1.58835 45.3438 1.4476 45.3297 1.27003C45.3156 1.0838 45.2028 0.964704 44.9956 0.915981C45.0759 0.875921 45.1355 0.828281 45.1757 0.774145C45.2256 0.707016 45.2462 0.62906 45.2397 0.54136C45.2266 0.377869 45.1301 0.260936 44.9522 0.192724C44.7797 0.126678 44.5335 0.106107 44.2222 0.129927C43.9456 0.151581 43.7319 0.213296 43.5854 0.312906C43.4379 0.413599 43.3479 0.554353 43.3197 0.730836L43.3164 0.751408L43.8252 0.817454L43.8273 0.796882C43.8382 0.709182 43.8761 0.645301 43.9434 0.599827C44.0117 0.55327 44.1159 0.525119 44.2536 0.514292C44.4033 0.502382 44.5161 0.507796 44.5899 0.530533C44.6582 0.551105 44.6929 0.583586 44.6962 0.627978C44.6995 0.674535 44.6843 0.709182 44.6474 0.735167C44.6083 0.763318 44.5411 0.780641 44.4456 0.78822L43.9651 0.826115L43.9955 1.21589L44.4955 1.17692C44.5888 1.16934 44.6572 1.17692 44.6984 1.19641C44.7363 1.21481 44.7569 1.24729 44.7602 1.29493C44.7635 1.34257 44.7342 1.38155 44.6691 1.41403C44.5997 1.44868 44.4836 1.4725 44.3241 1.48441C44.1799 1.49524 44.0692 1.48116 43.9976 1.44218C43.9271 1.40321 43.8826 1.34041 43.862 1.25054L43.8577 1.22997L43.3338 1.37397L43.3392 1.39346C43.388 1.57969 43.4997 1.71395 43.67 1.7919C43.8002 1.85145 43.9683 1.88177 44.1712 1.88177C44.2298 1.88177 44.2905 1.8796 44.3545 1.87419H44.3556Z" fill="white" />
    <path d="M46.9035 1.71721C47.0998 1.71071 47.2538 1.66415 47.3601 1.57645C47.4686 1.48767 47.5218 1.36749 47.5163 1.21807C47.5131 1.11738 47.4784 1.03076 47.4133 0.959302C47.358 0.899753 47.2831 0.855361 47.1898 0.826128C47.2636 0.784985 47.3211 0.736262 47.3601 0.681044C47.4079 0.612832 47.4306 0.535959 47.4285 0.451507C47.4241 0.309671 47.3656 0.200316 47.2549 0.124526C47.1464 0.0509006 46.9978 0.0162536 46.8167 0.0216672L45.5508 0.0617278L45.605 1.75727L46.9045 1.71612L46.9035 1.71721ZM46.9805 1.1975C46.9826 1.25488 46.9653 1.33176 46.7993 1.33717L46.104 1.35883L46.0953 1.08273L46.795 1.06108C46.9577 1.05566 46.9783 1.13687 46.9805 1.19858V1.1975ZM46.0747 0.429853L46.7364 0.409281C46.7961 0.407115 46.8416 0.417943 46.8709 0.439597C46.8991 0.460169 46.9132 0.49265 46.9154 0.538125C46.9176 0.596591 46.9013 0.674547 46.7462 0.679961L46.0845 0.700532L46.0758 0.430935L46.0747 0.429853Z" fill="white" />
    <path d="M49.2459 1.72044L49.7514 1.72802L49.7785 0.0324816L49.286 0.0238198L48.2859 1.03941L48.3021 0.00866176L47.7977 0L47.7695 1.69662L48.2631 1.7042L49.2632 0.686444L49.2459 1.72044Z" fill="white" />
    <path d="M50.6114 1.75835L50.6103 1.77784L51.131 1.81032L51.2101 0.534874L51.9033 0.578183L51.9293 0.160253L50.0299 0.0422363L50.0039 0.461249L50.6895 0.503475L50.6114 1.75835Z" fill="white" />
    <path d="M53.9621 2.07878L54.1422 0.41139L54.1443 0.391901L53.654 0.338847L52.566 1.25916L52.6767 0.233824L52.1744 0.179688L51.9944 1.84599L51.9922 1.86656L52.4825 1.91854L53.5716 0.996058L53.4598 2.02464L53.9621 2.07878Z" fill="white" />
    <path d="M54.2891 2.12539L55.9758 2.38633L56.0377 1.98897L54.8596 1.80707L54.8998 1.54722L55.9162 1.70421L55.9769 1.31335L54.9605 1.15636L54.9963 0.925738L56.1526 1.10439L56.2145 0.707028L54.5494 0.449341L54.2891 2.12539Z" fill="white" />
    <path d="M57.1189 2.60605L57.6938 2.72948L59.0617 1.2873L58.4976 1.16712L57.8945 1.80376L57.581 0.979807L57.5766 0.970062L56.9844 0.843384L57.5192 2.18812L57.1189 2.60605Z" fill="white" />
    <path d="M58.9383 2.45134C58.9003 2.48815 58.8591 2.50872 58.8124 2.51305C58.7647 2.51738 58.7105 2.51305 58.6508 2.50114L58.6302 2.49681L58.5586 2.93423L58.5759 2.93856C58.7224 2.97862 58.8493 2.99378 58.9513 2.98295C59.0554 2.97212 59.1519 2.93423 59.2398 2.86926C59.2897 2.83029 59.3364 2.78481 59.3765 2.73284C59.4166 2.68087 59.4546 2.61699 59.4904 2.54228C59.5251 2.46866 59.562 2.37554 59.5999 2.26619C59.6357 2.16225 59.6759 2.03665 59.7182 1.89265L60.3907 2.06805L60.0664 3.30344L60.5708 3.43553L60.996 1.81361L61.0014 1.79412L59.3331 1.35779L59.255 1.62414C59.204 1.80062 59.1606 1.94679 59.127 2.05723C59.0934 2.1655 59.0619 2.25103 59.0337 2.31275C59.0055 2.37121 58.974 2.41777 58.9393 2.45134H58.9383Z" fill="white" />
    <path d="M62.606 2.98286L62.2947 3.96921L62.7763 4.12079L63.2883 2.50321L62.8176 2.35488L61.569 3.04349L61.8804 2.0593L61.3987 1.90771L60.8867 3.5253L61.3575 3.67363L62.606 2.98286Z" fill="white" />
    <path d="M63.9077 3.98545C64.0032 4.02118 64.1019 4.04717 64.1995 4.06449C64.2884 4.08073 64.385 4.09156 64.4837 4.09697L64.2722 4.66757L64.7614 4.84838L65.3504 3.25678L64.8612 3.07597L64.6258 3.71261C64.5379 3.70286 64.4598 3.69095 64.3947 3.67688C64.3264 3.66172 64.2581 3.64223 64.1919 3.61841C64.0661 3.57185 63.9825 3.51664 63.9446 3.45384C63.9066 3.39212 63.9055 3.312 63.9413 3.21456L64.0975 2.79446L63.6083 2.61365L63.4152 3.13444C63.3425 3.33149 63.3458 3.50256 63.4271 3.64331C63.5074 3.7819 63.6691 3.89775 63.9077 3.98545Z" fill="white" />
    <path d="M65.0664 4.96645L65.5459 5.17108L65.8062 4.56368L66.7011 4.94588L66.4419 5.5522L66.9213 5.75683L67.5808 4.21504L67.5884 4.19664L67.109 3.992L66.866 4.56043L65.97 4.17823L66.213 3.61088L65.7335 3.40625L65.074 4.94804L65.0664 4.96645Z" fill="white" />
    <path d="M67.4088 5.55982C67.4305 5.71465 67.501 5.8619 67.6181 5.99832C67.7342 6.13258 67.8969 6.25168 68.1019 6.35129C68.3069 6.4509 68.5 6.50612 68.6768 6.5137C68.6942 6.5137 68.7105 6.51478 68.7278 6.51478C68.8851 6.51478 69.0272 6.47905 69.1509 6.40867C69.2875 6.33072 69.396 6.20945 69.4741 6.04921C69.5544 5.88572 69.5837 5.7244 69.562 5.56848C69.5403 5.41257 69.4698 5.26532 69.3537 5.13106C69.2377 4.99681 69.0749 4.87879 68.871 4.77918C68.666 4.67957 68.4729 4.62435 68.295 4.61461C68.116 4.60486 67.9566 4.64059 67.8199 4.71855C67.6832 4.79759 67.5737 4.91993 67.4945 5.08343C67.4164 5.24367 67.3871 5.40391 67.4099 5.55874L67.4088 5.55982ZM67.9728 5.31838C68.0401 5.18195 68.1323 5.09858 68.2494 5.07152C68.3677 5.04445 68.5141 5.0726 68.6866 5.15597C69.0294 5.32379 69.1303 5.53925 68.9958 5.81534C68.8612 6.08927 68.6302 6.14124 68.2863 5.97342C68.1149 5.89005 68.001 5.79152 67.9501 5.68325C67.8991 5.57606 67.9078 5.45263 67.9739 5.31729L67.9728 5.31838Z" fill="white" />
    <path d="M71.0061 5.88566C71.145 5.96254 71.2773 6.00043 71.3988 6.00043C71.4335 6.00043 71.4661 5.99718 71.4997 5.99177C71.6505 5.96362 71.7687 5.877 71.8479 5.73192L71.8577 5.71459L71.4509 5.49047L71.4411 5.5078C71.4151 5.55543 71.3793 5.58467 71.3326 5.59658C71.2871 5.60849 71.2361 5.59874 71.1808 5.56843C71.1276 5.53919 71.0929 5.5013 71.0788 5.45582C71.0636 5.41035 71.0701 5.36488 71.0962 5.31724L71.1059 5.29991L70.697 5.07471L70.6872 5.09203C70.607 5.23603 70.5961 5.3822 70.6525 5.52404C70.7089 5.66479 70.8272 5.78605 71.0051 5.88458L71.0061 5.88566Z" fill="white" />
    <path d="M70.581 7.62347L71.0236 7.86709L71.8447 6.38268L71.413 6.14448L70.0527 6.57324L70.5528 5.67025L70.1102 5.42664L69.2891 6.91104L69.7208 7.14924L71.0821 6.71832L70.581 7.62347Z" fill="white" />
    <path d="M72.6903 8.06296L72.9908 9.08613L73.6178 9.48457L73.237 8.17339L74.5094 8.04022L73.9182 7.66451L73.9128 7.66127L72.866 7.78794L73.2262 7.22385L72.7923 6.94775L71.8898 8.36179L71.8789 8.37803L72.3128 8.65412L72.6903 8.06296Z" fill="white" />
    <path d="M74.4727 10.0909L76.2973 9.3016L75.8276 8.9692L75.0216 9.31892L75.0574 8.43759V8.42676L74.5628 8.07812L74.5248 9.52464L73.9922 9.75201L74.4727 10.0909Z" fill="white" />
    <path d="M75.8726 10.236C75.8238 10.2793 75.7761 10.3096 75.7316 10.3259C75.6828 10.3443 75.6351 10.3464 75.5917 10.3335C75.5461 10.3183 75.4973 10.2934 75.4474 10.2587L75.4301 10.2468L75.1914 10.6215L75.2055 10.6323C75.3248 10.7265 75.4355 10.7893 75.5331 10.8207C75.6329 10.8521 75.737 10.8542 75.8433 10.8293C75.9052 10.8131 75.9648 10.7893 76.0223 10.7568C76.0798 10.7254 76.1406 10.681 76.2024 10.6258C76.2642 10.5716 76.3336 10.5002 76.4117 10.4147C76.4855 10.3335 76.5712 10.2328 76.6678 10.1169L77.2166 10.5413L76.4324 11.5504L76.8446 11.8698L77.8859 10.5294L76.5224 9.47485L76.3456 9.68923C76.2306 9.82999 76.133 9.94692 76.057 10.0379C75.9833 10.1245 75.9204 10.1916 75.8705 10.236H75.8726Z" fill="white" />
    <path d="M78.0067 12.854C78.1086 12.9407 78.2149 12.998 78.3223 13.0251C78.3711 13.037 78.4189 13.0435 78.4666 13.0435C78.5252 13.0435 78.5827 13.0338 78.6391 13.0154C78.741 12.9818 78.8311 12.919 78.9092 12.827C78.9884 12.7349 79.0361 12.6342 79.0534 12.5303C79.0697 12.4253 79.0556 12.3203 79.0122 12.2174C78.9688 12.1156 78.8951 12.0203 78.7931 11.9337L78.28 11.4974L78.5968 11.126L78.1998 10.7882L77.0977 12.0788L78.0078 12.853L78.0067 12.854ZM77.7615 12.1037L78.0121 11.8103L78.4764 12.2055C78.5816 12.2954 78.5903 12.3831 78.5057 12.4837C78.42 12.5834 78.331 12.5888 78.2258 12.4989L77.7615 12.1037Z" fill="white" />
    <path d="M78.957 13.6953L79.3399 14.0483L80.2088 13.1106L80.7187 13.5816L81.0039 13.2741L79.6068 11.9835L79.3215 12.291L79.8259 12.7566L78.957 13.6953Z" fill="white" />
    <path d="M80.2344 14.9047L80.6477 15.3216L82.5829 14.8625L82.1782 14.4543L81.3245 14.6568L81.5155 13.7852L81.0892 13.3553L80.7984 14.7737L80.2344 14.9047Z" fill="white" />
    <path d="M83.0896 16.9543C83.1221 16.9543 83.1536 16.9511 83.185 16.9457C83.2924 16.9273 83.3933 16.8753 83.4866 16.7908C83.581 16.7053 83.645 16.6089 83.6764 16.505C83.7079 16.4011 83.7079 16.2917 83.6764 16.1813C83.645 16.0708 83.5821 15.9636 83.4898 15.8608L82.7175 15.0098L81.457 16.1477L81.8074 16.5342L82.1448 16.2289L82.5548 16.6804C82.6503 16.7865 82.7544 16.8623 82.8618 16.9067C82.9377 16.9381 83.0147 16.9532 83.0907 16.9532L83.0896 16.9543ZM82.8086 16.3491L82.4496 15.9539L82.7609 15.6735L83.12 16.0687C83.1774 16.1315 83.2067 16.1921 83.2078 16.2462C83.2089 16.3004 83.1829 16.3513 83.1286 16.4C83.0776 16.4455 83.0277 16.4639 82.9757 16.4563C82.9225 16.4487 82.8661 16.4119 82.8097 16.3491H82.8086Z" fill="white" />
    <path d="M83.5692 18.5676C83.6538 18.6715 83.7482 18.7473 83.8491 18.7928C83.9261 18.8285 84.0064 18.8458 84.0866 18.8458C84.1116 18.8458 84.1376 18.8437 84.1626 18.8404C84.2689 18.8263 84.3698 18.7798 84.4631 18.704C84.5574 18.6271 84.6236 18.5372 84.6583 18.4376C84.693 18.338 84.6984 18.2319 84.6746 18.1226C84.6496 18.0143 84.5943 17.9071 84.5108 17.8032L84.0856 17.2813L84.4641 16.9738L84.1344 16.5699L82.8164 17.6408L83.5714 18.5665L83.5692 18.5676ZM84.1268 18.2936C84.0769 18.3348 84.0281 18.3521 83.9825 18.3467C83.9369 18.3413 83.8925 18.311 83.8491 18.2579L83.464 17.7858L83.7634 17.5422L84.1485 18.0143C84.2353 18.1215 84.2287 18.2092 84.1268 18.2926V18.2936Z" fill="white" />
    <path d="M85.3965 18.1202L84.0781 19.1912L84.4075 19.5951L85.7258 18.5242L85.3965 18.1202Z" fill="white" />
    <path d="M85.2831 20.7926L86.6965 21.0005L85.8483 21.5949L86.139 22.0074L87.5296 21.0319L87.2454 20.6291L85.8342 20.4191L86.6803 19.8257L86.3896 19.4132L85 20.3898L85.2831 20.7926Z" fill="white" />
    <path d="M87.0163 22.6483C86.9491 22.7891 86.9274 22.9483 86.9501 23.1215C86.974 23.2947 87.0467 23.481 87.166 23.6758C87.3103 23.9108 87.473 24.0775 87.6498 24.1717C87.7561 24.228 87.8667 24.2573 87.9806 24.2573C88.0577 24.2573 88.1358 24.2443 88.2139 24.2183L88.2334 24.2118L88.0425 23.704L88.024 23.7105C87.8342 23.7787 87.6704 23.6964 87.524 23.4571C87.3309 23.1421 87.3634 22.9104 87.6249 22.7501C87.7539 22.6711 87.8765 22.6494 87.9872 22.6873C88.1 22.7252 88.2052 22.8237 88.3017 22.9818C88.4438 23.2135 88.4449 23.3943 88.3061 23.5362L88.2931 23.5502L88.664 23.9552L88.6792 23.94C88.8213 23.7949 88.8907 23.6185 88.8853 23.4182C88.8799 23.2189 88.804 22.9991 88.6597 22.7642C88.5447 22.5769 88.4135 22.4307 88.2692 22.33C88.1238 22.2282 87.9709 22.1741 87.8136 22.1665C87.6563 22.16 87.499 22.2033 87.3461 22.2965C87.1942 22.3896 87.0825 22.5076 87.0152 22.6483H87.0163Z" fill="white" />
    <path d="M88.067 25.1559L89.1897 24.5431L89.6377 25.3605L88.515 25.9733L88.7656 26.4303L90.256 25.6161L89.3079 23.8859L87.8164 24.699L88.067 25.1559Z" fill="white" />
    <path d="M89.629 26.2527C89.4684 26.3306 89.3469 26.4389 89.2677 26.5742C89.1885 26.7096 89.1527 26.8687 89.1614 27.0474C89.169 27.2249 89.2233 27.4187 89.3231 27.6234C89.4218 27.828 89.54 27.9904 89.6745 28.1063C89.8101 28.2232 89.9565 28.2936 90.1117 28.3163C90.1464 28.3217 90.1822 28.3239 90.2169 28.3239C90.3384 28.3239 90.4631 28.2936 90.5879 28.233C90.7517 28.1539 90.8753 28.0446 90.9545 27.9092C91.0337 27.7739 91.0706 27.6147 91.0619 27.4361C91.0532 27.2596 90.999 27.0658 90.9003 26.8611C90.8016 26.6565 90.6833 26.4941 90.5499 26.3761C90.4154 26.2581 90.2679 26.1877 90.1117 26.165C89.9555 26.1422 89.7938 26.1714 89.63 26.2505L89.629 26.2527ZM90.5217 27.0452C90.6041 27.2163 90.6323 27.3624 90.6041 27.4794C90.577 27.5952 90.4924 27.6873 90.3557 27.7533C90.2201 27.8183 90.0965 27.8258 89.9891 27.776C89.8806 27.7241 89.783 27.6115 89.7005 27.4404C89.617 27.2682 89.5888 27.1221 89.6159 27.0041C89.6431 26.8882 89.7255 26.7962 89.8611 26.7312C89.9392 26.6933 90.0129 26.6749 90.0813 26.6749C90.1344 26.6749 90.1843 26.6857 90.231 26.7085C90.3405 26.7604 90.4382 26.8731 90.5217 27.0452Z" fill="white" />
    <path d="M89.9062 28.7992L90.1102 29.2789L90.5289 29.1013L90.7675 29.6621C90.8239 29.7932 90.8966 29.8993 90.9834 29.9761C91.0713 30.053 91.17 30.1017 91.2774 30.1191C91.3056 30.1234 91.3327 30.1256 91.362 30.1256C91.4433 30.1256 91.5279 30.1071 91.6126 30.0714C91.7308 30.0216 91.8219 29.9512 91.8859 29.8635C91.9499 29.7758 91.9846 29.673 91.9922 29.5571C91.9987 29.4424 91.9749 29.32 91.9206 29.1933L91.478 28.155L91.4705 28.1366L89.9258 28.7927L89.9073 28.8003L89.9062 28.7992ZM91.2947 28.7754L91.5041 29.2659C91.5703 29.4218 91.5377 29.5257 91.4032 29.582C91.2774 29.6351 91.1841 29.5853 91.1179 29.4294L90.9086 28.9389L91.2947 28.7754Z" fill="white" />
    <path d="M92.1049 30.7742L90.9247 31.2138L90.9062 31.2213L91.0885 31.7086L92.2871 31.2614L92.5301 31.911L92.9239 31.7638L92.2568 29.9849L91.8641 30.131L92.1049 30.7742Z" fill="white" />
    <path d="M91.4147 32.6202L91.7564 32.6722L92.033 33.5135L91.7889 33.7582L91.9679 34.3006L93.2999 32.9125L93.1394 32.4242L91.2422 32.0951L91.4147 32.6202ZM92.3486 33.1973L92.1978 32.7404L92.7229 32.8227L92.3486 33.1973Z" fill="white" />
    <path d="M90.0805 37.6364C89.5273 35.2793 88.7734 32.9698 87.8199 30.7189C85.6428 25.5824 82.5275 20.969 78.5584 17.0073C74.5893 13.0467 69.9683 9.93606 64.8212 7.76304C59.4929 5.51315 53.8327 4.37305 47.9989 4.37305C42.1651 4.37305 36.506 5.51315 31.1767 7.76304C26.0306 9.93606 21.4085 13.0456 17.4395 17.0073C13.4704 20.969 10.355 25.5814 8.1779 30.7189C7.22441 32.9698 6.47051 35.2793 5.91729 37.6364H0V57.383H5.91946C6.47376 59.7401 7.22766 62.0495 8.18115 64.3005C10.3572 69.4369 13.4736 74.0504 17.4427 78.0121C21.4118 81.9737 26.0328 85.0833 31.1799 87.2563C36.5082 89.5062 42.1684 90.6463 48.0022 90.6463C53.8359 90.6463 59.495 89.5062 64.8244 87.2563C69.9704 85.0844 74.5925 81.9737 78.5616 78.0121C82.5296 74.0504 85.6461 69.438 87.8232 64.3005C88.7767 62.0495 89.5306 59.7401 90.0838 57.383H96.0033V37.6364H90.0838H90.0805ZM88.7387 37.6364H69.3597C69.1178 35.5803 68.8011 33.5675 68.4106 31.6143C74.0165 30.72 79.5509 29.4553 84.9833 27.8258C86.6267 30.8889 87.898 34.1792 88.7387 37.6364ZM84.3379 26.6673C79.0281 28.247 73.6206 29.4759 68.1448 30.3464C67.0818 25.4969 65.5631 21.035 63.6301 17.1762C63.4609 16.8384 63.2884 16.5071 63.1148 16.1812C65.6998 15.1364 68.1828 13.8176 70.5269 12.2379C76.2088 15.8661 80.96 20.8239 84.3379 26.6673ZM69.3109 11.4908C67.1425 12.906 64.8559 14.0937 62.4803 15.0422C60.7577 12.0625 58.8203 9.65455 56.7029 7.86698C55.9045 7.19245 55.091 6.61536 54.2633 6.1368C59.687 6.951 64.7734 8.8057 69.3109 11.4908ZM48.6487 5.69072C53.2903 5.98413 57.6911 9.42394 61.2523 15.5088C57.2399 16.9553 52.9931 17.7349 48.6487 17.8053V5.69072ZM48.6487 19.1002C53.2187 19.0277 57.6824 18.1972 61.8956 16.6522C62.0898 17.0127 62.2818 17.3808 62.4694 17.7565C64.346 21.5017 65.8235 25.8315 66.8616 30.5435C60.8564 31.4356 54.7721 31.899 48.6487 31.9293V19.0991V19.1002ZM48.6487 33.2254C54.8621 33.195 61.0354 32.723 67.1273 31.8135C67.507 33.7028 67.8161 35.6474 68.0537 37.6374H48.6487V33.2254ZM29.1384 30.5445C30.1776 25.8326 31.654 21.5028 33.5306 17.7576C33.7193 17.3808 33.9102 17.0127 34.1044 16.6533C38.3176 18.1983 42.7824 19.0298 47.3513 19.1013V31.9315C41.2268 31.9012 35.1425 31.4367 29.1384 30.5456V30.5445ZM47.3513 33.2254V37.6374H27.9463C28.1849 35.6485 28.493 33.7028 28.8727 31.8135C34.9646 32.7219 41.1379 33.194 47.3513 33.2254ZM34.7477 15.5088C38.3078 9.42502 42.7086 5.98522 47.3513 5.69072V17.8053C43.0069 17.7349 38.7612 16.9543 34.7477 15.5088ZM41.7356 6.1368C40.909 6.61536 40.0944 7.19245 39.2971 7.86698C37.1797 9.65455 35.2423 12.0625 33.5197 15.0422C31.1441 14.0937 28.8586 12.906 26.6891 11.4908C31.2277 8.8057 36.3129 6.951 41.7356 6.1368ZM25.472 12.239C27.8172 13.8198 30.2991 15.1374 32.8841 16.1823C32.7105 16.5071 32.5391 16.8384 32.3688 17.1773C30.4358 21.0361 28.9161 25.498 27.8541 30.3475C22.3783 29.477 16.9698 28.2481 11.661 26.6684C15.0378 20.825 19.7901 15.8672 25.472 12.239ZM11.0178 27.8258C16.4502 29.4553 21.9845 30.72 27.5905 31.6143C27.2 33.5675 26.8833 35.5803 26.6414 37.6364H7.26129C8.10197 34.1803 9.37329 30.8889 11.0167 27.8258H11.0178ZM7.26237 57.383H26.6414C26.8833 59.4391 27.2 61.4519 27.5905 63.4051C21.9845 64.2983 16.4502 65.564 11.0178 67.1946C9.37437 64.1305 8.10305 60.8401 7.26237 57.383ZM11.6621 68.352C16.9708 66.7724 22.3794 65.5435 27.8552 64.674C28.9172 69.5225 30.4369 73.9844 32.3699 77.8432C32.5391 78.181 32.7105 78.5123 32.8852 78.8382C30.3002 79.883 27.8172 81.2018 25.4731 82.7815C19.7912 79.1533 15.04 74.1966 11.6621 68.352ZM26.6891 83.5285C28.8575 82.1134 31.1441 80.9257 33.5197 79.9772C35.2423 82.9568 37.1797 85.3648 39.2971 87.1524C40.0944 87.8269 40.909 88.4029 41.7356 88.8826C36.3129 88.0684 31.2255 86.2137 26.6891 83.5285ZM47.3513 89.3287C42.7097 89.0352 38.3089 85.5954 34.7477 79.5106C38.7612 78.064 43.0069 77.2845 47.3513 77.2141V89.3287ZM47.3513 75.9192C42.7813 75.9917 38.3176 76.8222 34.1044 78.3672C33.9102 78.0067 33.7182 77.6385 33.5306 77.2628C31.654 73.5177 30.1765 69.1857 29.1384 64.4748C35.1436 63.5827 41.2279 63.1193 47.3513 63.0889V75.9192ZM47.3513 61.794C41.1368 61.8243 34.9646 62.2964 28.8727 63.2059C28.493 61.3165 28.1849 59.372 27.9463 57.3819H47.3513V61.794ZM48.6487 61.794V57.3819H68.0537C67.815 59.3709 67.507 61.3165 67.1273 63.2059C61.0354 62.2975 54.861 61.8254 48.6487 61.794ZM66.8616 64.4748C65.8235 69.1857 64.3449 73.5166 62.4694 77.2628C62.2818 77.6385 62.0887 78.0067 61.8956 78.3672C57.6824 76.8222 53.2187 75.9906 48.6487 75.9192V63.0889C54.7731 63.1193 60.8575 63.5837 66.8616 64.4748ZM48.6487 77.213C52.9931 77.2834 57.2388 78.064 61.2523 79.5106C57.6922 85.5944 53.2914 89.0331 48.6487 89.3276V77.213ZM54.2644 88.8815C55.091 88.4018 55.9056 87.8258 56.7029 87.1513C58.8203 85.3637 60.7577 82.9558 62.4803 79.9761C64.8559 80.9257 67.1414 82.1123 69.3109 83.5275C64.7723 86.2126 59.687 88.0673 54.2644 88.8815ZM70.528 82.7793C68.1828 81.1985 65.7009 79.8808 63.1159 78.836C63.2895 78.5112 63.4609 78.1788 63.6312 77.841C65.5642 73.9822 67.0839 69.5203 68.1459 64.6719C73.6217 65.5424 79.0302 66.7702 84.339 68.3499C80.9622 74.1933 76.211 79.1511 70.528 82.7793ZM84.9833 67.1925C79.5509 65.563 74.0165 64.2973 68.4106 63.4029C68.8011 61.4497 69.1178 59.4369 69.3597 57.3808H88.7387C87.898 60.8369 86.6267 64.1284 84.9833 67.1925ZM94.541 55.9246H1.45898V39.0915H94.541V55.9246Z" fill="white" />
    <path d="M24.9792 52.4004L26.1702 50.7233H34.0932L35.2962 52.4188H39.0386L38.9887 52.3506L31.7816 42.6018H28.5968L28.5838 42.6191L21.3398 52.4188H24.9672L24.9802 52.4004H24.9792ZM30.1371 45.1235L32.4108 48.3435H27.8516L30.1371 45.1235Z" fill="white" />
    <path d="M43.3155 50.1668H50.0615C51.425 50.1668 52.5065 49.8311 53.2745 49.1696C54.0447 48.5059 54.4352 47.5693 54.4352 46.3837C54.4352 45.1982 54.0447 44.2627 53.2745 43.599C52.5065 42.9374 51.425 42.6018 50.0615 42.6018H40.1914V52.4188H43.3166V50.1668H43.3155ZM43.3155 45.1895H49.5799C50.1667 45.1895 50.5974 45.2869 50.8599 45.4797C51.1213 45.6724 51.2482 45.9723 51.2482 46.3978C51.2482 46.8233 51.1213 47.107 50.861 47.2943C50.5985 47.4827 50.1678 47.5791 49.581 47.5791H43.3166V45.1895H43.3155Z" fill="white" />
    <path d="M75.9434 51.3209C77.3666 52.1784 79.4645 52.6126 82.1785 52.6126C84.8925 52.6126 86.9893 52.1773 88.4125 51.3209C89.8422 50.459 90.5668 49.1858 90.5668 47.5368C90.5668 45.8878 89.8444 44.5831 88.419 43.7115C87.0002 42.8453 84.9001 42.4058 82.1785 42.4058C79.4569 42.4058 77.3666 42.8453 75.9434 43.7115C74.5137 44.582 73.7891 45.8694 73.7891 47.5357C73.7891 49.202 74.5137 50.4579 75.9434 51.3198V51.3209ZM78.2137 45.6084C79.0447 45.2013 80.3789 44.9945 82.1785 44.9945C83.9781 44.9945 85.3112 45.2013 86.1432 45.6084C86.9752 46.0177 87.3798 46.6479 87.3798 47.5368C87.3798 48.4257 86.9752 49.0136 86.1432 49.4175C85.3123 49.8202 83.9792 50.0249 82.1785 50.0249C80.3778 50.0249 79.0436 49.8202 78.2137 49.4175C77.3828 49.0136 76.9782 48.3986 76.9782 47.5368C76.9782 46.6749 77.3828 46.0166 78.2148 45.6084H78.2137Z" fill="white" />
    <path d="M72.4263 49.9253H70.823V42.5985H57.8191V42.6397L57.78 44.097C57.7551 45.0184 57.7063 45.8153 57.6347 46.466C57.5523 47.2087 57.4611 47.683 57.3331 48.0511C57.1802 48.4842 56.8168 49.3016 56.0965 49.9144L56.0857 49.9242H55.207V52.3906H72.4263V49.9242V49.9253ZM67.6968 49.9253H59.6382L59.687 49.8603C60.1882 49.1912 60.4778 48.089 60.5819 47.2802L60.5971 47.1611C60.6676 46.6219 60.7544 45.9549 60.788 45.1754L60.7902 45.1364H67.6979V49.9242L67.6968 49.9253Z" fill="white" />
    <path d="M8.55875 48.4301L15.2006 52.4188H20.6732L20.5409 52.3398L12.018 47.2196L20.4714 42.6029H15.3406L15.3308 42.6083L8.55875 46.4022V42.6029H5.43359V52.4188H8.55875V48.4301Z" fill="white" />
  </g>
  <defs>
    <clipPath id="clip0_1295_19580">
      <rect width="96" height="95" fill="white" />
    </clipPath>
  </defs>
</svg>