<svg width="144" height="30" viewBox="0 0 144 30" fill="none" xmlns="http://www.w3.org/2000/svg">
<path d="M141.811 27.7874H2.18868V2.21261H141.811V27.7874ZM144 0H0V30H144V0Z" fill="#F1F1F1"/>
<path d="M51.1434 19.8811L52.9471 22.4577H58.5614L58.4865 22.3532L47.675 7.54236H42.8984L42.8806 7.56758L32.0156 22.4541H37.4552L37.4731 22.4252L39.2589 19.8775H51.1434V19.8811ZM45.2119 11.373L48.6232 16.2667H41.7827L45.2119 11.373Z" fill="#F1F1F1"/>
<path d="M79.9081 17.5207C81.063 16.5117 81.6512 15.0883 81.6512 13.2901C81.6512 11.4919 81.0666 10.0685 79.9081 9.05947C78.7567 8.05407 77.1348 7.54596 75.0887 7.54596H60.2812V22.4577H64.9687V19.0379H75.0887C77.1348 19.0379 78.7567 18.5297 79.9081 17.5243M64.9687 15.1063V11.4775H74.3651C75.2455 11.4775 75.8907 11.6252 76.2828 11.9171C76.6749 12.209 76.8639 12.6667 76.8639 13.3117C76.8639 13.9568 76.6749 14.3892 76.2828 14.6739C75.8907 14.9622 75.242 15.1063 74.3615 15.1063H64.9652H64.9687Z" fill="#F1F1F1"/>
<path d="M132.627 9.23241C130.499 7.9171 127.348 7.24683 123.266 7.24683C119.185 7.24683 116.048 7.91349 113.913 9.23241C111.767 10.5549 110.68 12.5117 110.68 15.0414C110.68 17.5712 111.767 19.4811 113.913 20.7892C116.048 22.0901 119.192 22.7531 123.266 22.7531C127.341 22.7531 130.485 22.0937 132.616 20.7892C134.762 19.4811 135.849 17.5459 135.849 15.0414C135.849 12.5369 134.766 10.5549 132.627 9.23241ZM129.212 17.8991C127.965 18.5117 125.965 18.8216 123.266 18.8216C120.568 18.8216 118.565 18.5117 117.317 17.8991C116.069 17.2865 115.463 16.3531 115.463 15.0414C115.463 13.7297 116.069 12.7315 117.317 12.1117C118.565 11.4919 120.564 11.1784 123.263 11.1784C125.961 11.1784 127.961 11.4919 129.209 12.1117C130.456 12.7315 131.062 13.6901 131.062 15.0414C131.062 16.3928 130.456 17.2865 129.209 17.8991" fill="#F1F1F1"/>
<path d="M86.0028 15.8234C85.7747 16.4828 85.2293 17.7225 84.1492 18.6558L84.1314 18.6702H82.8125V22.418H108.642V18.6702H106.236V7.5387H86.73V7.60356L86.673 9.81978C86.6373 11.2216 86.5625 12.4288 86.4555 13.4198C86.3308 14.5477 86.1953 15.2684 86.0028 15.827M89.5354 18.5729C90.2875 17.5567 90.7224 15.881 90.8792 14.6522L90.9006 14.472C91.004 13.654 91.1359 12.6414 91.1858 11.4558V11.3982H101.548V18.6738H89.4605L89.5318 18.5765L89.5354 18.5729Z" fill="#F1F1F1"/>
<path d="M31.0084 22.4577L30.8087 22.3388L18.026 14.5586L30.7054 7.54596H23.0093L22.9951 7.55317L12.8359 13.3153V7.54596H8.14844V22.4577H12.8359V16.3964L22.799 22.4577H31.0084Z" fill="#F1F1F1"/>
</svg>
