<svg width="24" height="24" viewBox="0 0 24 24" fill="none" xmlns="http://www.w3.org/2000/svg">
<path d="M12.5 23C13.6687 23 14.625 22.0308 14.625 20.8462H10.375C10.375 22.0308 11.3313 23 12.5 23ZM18.875 16.5385V11.1538C18.875 7.84769 17.1431 5.08 14.0938 4.34769V3.61538C14.0938 2.72154 13.3819 2 12.5 2C11.6181 2 10.9062 2.72154 10.9062 3.61538V4.34769C7.8675 5.08 6.125 7.83692 6.125 11.1538V16.5385L4 18.6923V19.7692H21V18.6923L18.875 16.5385ZM16.75 17.6154H8.25V11.1538C8.25 8.48308 9.85437 6.30769 12.5 6.30769C15.1456 6.30769 16.75 8.48308 16.75 11.1538V17.6154Z" fill="#F1F1F1"/>
</svg>
