<svg width="20" height="20" viewBox="0 0 20 20" fill="none" xmlns="http://www.w3.org/2000/svg">
<g id="Name=view">
<g id="Eye">
<mask id="path-1-inside-1_1530_33638" fill="white">
<path fill-rule="evenodd" clip-rule="evenodd" d="M5.36827 6.72477C4.02954 7.82726 3.25 9.12017 3.25 10.1042C3.25 11.0881 4.02954 12.3811 5.36827 13.4835C6.68252 14.5659 8.33368 15.2917 9.75694 15.2917C11.1802 15.2917 12.8314 14.5659 14.1456 13.4835C15.4843 12.3811 16.2639 11.0881 16.2639 10.1042C16.2639 9.12017 15.4843 7.82726 14.1456 6.72477C12.8314 5.64245 11.1802 4.91666 9.75694 4.91666C8.33368 4.91666 6.68252 5.64245 5.36827 6.72477ZM4.41471 5.56688C5.90429 4.34017 7.8816 3.41666 9.75694 3.41666C11.6323 3.41666 13.6096 4.34017 15.0992 5.56688C16.5643 6.77342 17.7639 8.44925 17.7639 10.1042C17.7639 11.7591 16.5643 13.4349 15.0992 14.6414C13.6096 15.8681 11.6323 16.7917 9.75694 16.7917C7.8816 16.7917 5.90429 15.8681 4.41471 14.6414C2.94963 13.4349 1.75 11.7591 1.75 10.1042C1.75 8.44925 2.94963 6.77342 4.41471 5.56688ZM5.70833 10.1042C5.70833 7.86829 7.52107 6.05555 9.75694 6.05555C11.9928 6.05555 13.8056 7.86829 13.8056 10.1042C13.8056 12.34 11.9928 14.1528 9.75694 14.1528C7.52107 14.1528 5.70833 12.34 5.70833 10.1042ZM9.75694 7.55555C8.3495 7.55555 7.20833 8.69671 7.20833 10.1042C7.20833 11.5116 8.3495 12.6528 9.75694 12.6528C11.1644 12.6528 12.3056 11.5116 12.3056 10.1042C12.3056 8.69671 11.1644 7.55555 9.75694 7.55555Z"/>
</mask>
<path d="M5.36827 6.72477L6.32183 7.88267H6.32183L5.36827 6.72477ZM5.36827 13.4835L6.32183 12.3256L6.32183 12.3256L5.36827 13.4835ZM14.1456 13.4835L15.0992 14.6414V14.6414L14.1456 13.4835ZM14.1456 6.72477L15.0992 5.56688V5.56688L14.1456 6.72477ZM4.41471 5.56688L3.46115 4.40898L3.46115 4.40898L4.41471 5.56688ZM15.0992 5.56688L16.0527 4.40898V4.40898L15.0992 5.56688ZM15.0992 14.6414L16.0527 15.7993L15.0992 14.6414ZM4.41471 14.6414L3.46115 15.7993H3.46115L4.41471 14.6414ZM4.75 10.1042C4.75 9.98599 4.80755 9.69177 5.08185 9.24951C5.34524 8.82481 5.75909 8.3461 6.32183 7.88267L4.41471 5.56688C3.63872 6.20593 2.99343 6.92492 2.53238 7.6683C2.08222 8.39411 1.75 9.23834 1.75 10.1042H4.75ZM6.32183 12.3256C5.75909 11.8622 5.34524 11.3835 5.08185 10.9588C4.80755 10.5165 4.75 10.2223 4.75 10.1042H1.75C1.75 10.97 2.08222 11.8142 2.53238 12.54C2.99343 13.2834 3.63872 14.0024 4.41471 14.6414L6.32183 12.3256ZM9.75694 13.7917C8.78542 13.7917 7.46039 13.2633 6.32183 12.3256L4.41471 14.6414C5.90464 15.8684 7.88194 16.7917 9.75694 16.7917V13.7917ZM13.1921 12.3256C12.0535 13.2633 10.7285 13.7917 9.75694 13.7917V16.7917C11.632 16.7917 13.6092 15.8684 15.0992 14.6414L13.1921 12.3256ZM14.7639 10.1042C14.7639 10.2223 14.7063 10.5165 14.432 10.9588C14.1686 11.3835 13.7548 11.8622 13.1921 12.3256L15.0992 14.6414C15.8752 14.0024 16.5205 13.2834 16.9815 12.54C17.4317 11.8142 17.7639 10.97 17.7639 10.1042H14.7639ZM13.1921 7.88267C13.7548 8.3461 14.1686 8.82481 14.432 9.24951C14.7063 9.69177 14.7639 9.98599 14.7639 10.1042H17.7639C17.7639 9.23834 17.4317 8.39411 16.9815 7.6683C16.5205 6.92492 15.8752 6.20593 15.0992 5.56688L13.1921 7.88267ZM9.75694 6.41666C10.7285 6.41666 12.0535 6.94503 13.1921 7.88267L15.0992 5.56688C13.6092 4.33988 11.632 3.41666 9.75694 3.41666V6.41666ZM6.32183 7.88267C7.46039 6.94503 8.78541 6.41666 9.75694 6.41666V3.41666C7.88194 3.41666 5.90464 4.33988 4.41471 5.56688L6.32183 7.88267ZM9.75694 1.91666C7.42925 1.91666 5.12577 3.03812 3.46115 4.40898L5.36827 6.72477C6.68281 5.64221 8.33396 4.91666 9.75694 4.91666V1.91666ZM16.0527 4.40898C14.3881 3.03812 12.0846 1.91666 9.75694 1.91666V4.91666C11.1799 4.91666 12.8311 5.64221 14.1456 6.72477L16.0527 4.40898ZM19.2639 10.1042C19.2639 7.77742 17.643 5.71863 16.0527 4.40898L14.1456 6.72477C15.4855 7.8282 16.2639 9.12108 16.2639 10.1042H19.2639ZM16.0527 15.7993C17.643 14.4897 19.2639 12.4309 19.2639 10.1042H16.2639C16.2639 11.0872 15.4855 12.3801 14.1456 13.4835L16.0527 15.7993ZM9.75694 18.2917C12.0846 18.2917 14.3881 17.1702 16.0527 15.7993L14.1456 13.4835C12.8311 14.5661 11.1799 15.2917 9.75694 15.2917V18.2917ZM3.46115 15.7993C5.12577 17.1702 7.42925 18.2917 9.75694 18.2917V15.2917C8.33396 15.2917 6.68281 14.5661 5.36827 13.4835L3.46115 15.7993ZM0.25 10.1042C0.25 12.4309 1.87086 14.4897 3.46115 15.7993L5.36827 13.4835C4.02839 12.3801 3.25 11.0872 3.25 10.1042H0.25ZM3.46115 4.40898C1.87086 5.71863 0.25 7.77742 0.25 10.1042H3.25C3.25 9.12108 4.02839 7.8282 5.36827 6.72477L3.46115 4.40898ZM9.75694 4.55555C6.69265 4.55555 4.20833 7.03986 4.20833 10.1042H7.20833C7.20833 8.69671 8.3495 7.55555 9.75694 7.55555V4.55555ZM15.3056 10.1042C15.3056 7.03986 12.8212 4.55555 9.75694 4.55555V7.55555C11.1644 7.55555 12.3056 8.69671 12.3056 10.1042H15.3056ZM9.75694 15.6528C12.8212 15.6528 15.3056 13.1685 15.3056 10.1042H12.3056C12.3056 11.5116 11.1644 12.6528 9.75694 12.6528V15.6528ZM4.20833 10.1042C4.20833 13.1685 6.69265 15.6528 9.75694 15.6528V12.6528C8.3495 12.6528 7.20833 11.5116 7.20833 10.1042H4.20833ZM8.70833 10.1042C8.70833 9.52514 9.17793 9.05555 9.75694 9.05555V6.05555C7.52107 6.05555 5.70833 7.86829 5.70833 10.1042H8.70833ZM9.75694 11.1528C9.17793 11.1528 8.70833 10.6832 8.70833 10.1042H5.70833C5.70833 12.34 7.52107 14.1528 9.75694 14.1528V11.1528ZM10.8056 10.1042C10.8056 10.6832 10.336 11.1528 9.75694 11.1528V14.1528C11.9928 14.1528 13.8056 12.34 13.8056 10.1042H10.8056ZM9.75694 9.05555C10.336 9.05555 10.8056 9.52514 10.8056 10.1042H13.8056C13.8056 7.86829 11.9928 6.05555 9.75694 6.05555V9.05555Z" fill="#808080" mask="url(#path-1-inside-1_1530_33638)"/>
</g>
</g>
</svg>
